# Blender 5.1.2
# www.blender.org
mtllib facade.mtl
o facade
v -1.998078 0.018026 -1.990260
v -1.998078 6.018026 -1.990260
v -1.998078 1.018026 -1.990260
v -1.998078 1.118026 -1.990260
v -1.998078 0.118026 -1.990260
v -1.998078 0.253026 -1.990260
v -1.998078 0.941526 -1.990260
v -1.998078 0.118026 -1.890260
v -1.998078 0.018026 -1.890260
v -1.998078 1.118026 -1.940260
v -1.998078 1.018026 -1.890260
v 1.921922 0.861526 -1.940260
v -1.918079 0.333026 -1.940260
v 1.921922 0.333026 -1.940260
v -1.918079 0.861526 -1.940260
v -1.998078 0.941526 -1.940260
v -1.998078 0.253026 -1.940260
v -1.958079 0.901526 -1.940260
v -1.958079 0.293026 -1.940260
v 1.961922 0.293026 -1.960260
v 1.961922 0.901526 -1.960260
v -1.958079 0.901526 -1.960260
v -1.958079 0.293026 -1.960260
v -1.500000 2.500000 -1.990260
v -1.471178 2.792635 -1.990260
v -1.385819 3.074025 -1.990260
v -1.060660 3.560660 -1.990260
v -1.247204 3.333355 -1.990260
v -0.292636 3.971178 -1.990260
v -0.574025 3.885819 -1.990260
v 2.000000 6.018026 -1.990260
v 0.292636 3.971178 -1.990260
v 0.000000 4.000000 -1.990260
v -0.833355 3.747204 -1.990260
v -1.500000 1.118026 -1.990260
v 0.574025 3.885819 -1.990260
v 1.500000 1.118026 -1.990260
v 1.500000 2.500000 -1.990260
v 1.471178 2.792635 -1.990260
v 2.000000 1.118026 -1.990260
v 0.833355 3.747204 -1.990260
v 1.060660 3.560660 -1.990260
v 1.385819 3.074025 -1.990260
v 1.247204 3.333355 -1.990260
v 1.500000 1.118026 -1.940260
v 2.000000 1.118026 -1.940260
v -1.500000 0.018026 -1.990260
v -1.500000 0.018026 -1.890260
v 1.500000 0.018026 -1.990260
v 2.000000 0.018026 -1.990260
v 2.000000 0.018026 -1.890260
v 1.500000 0.018026 -1.890260
v -1.500000 1.118026 -1.940260
v 1.500000 0.941526 -1.940260
v 2.000000 0.941526 -1.940260
v 2.000000 1.018026 -1.890260
v 1.500000 1.018026 -1.890260
v -1.500000 0.941526 -1.940260
v -1.500000 1.018026 -1.890260
v -1.500000 0.118026 -1.890260
v 2.000000 0.118026 -1.890260
v 1.500000 0.118026 -1.890260
v -1.500000 0.253026 -1.940260
v 2.000000 0.253026 -1.940260
v 1.500000 0.253026 -1.940260
v -1.500000 0.333026 -1.940260
v -1.500000 0.861526 -1.940260
v 1.500000 0.333026 -1.940260
v 1.500000 0.861526 -1.940260
v -1.500000 0.293026 -1.940260
v -1.500000 0.901526 -1.940260
v 1.500000 0.293026 -1.960260
v 2.000000 0.254948 -1.941221
v 2.000000 0.939605 -1.941221
v 1.500000 0.901526 -1.960260
v -1.500000 0.293026 -1.960260
v -1.500000 0.901526 -1.960260
vn -0.0000 -0.0000 1.0000
vn -1.0000 -0.0000 -0.0000
vn -0.0000 1.0000 -0.0000
vn -0.0000 -1.0000 -0.0000
vn -0.0000 -0.5471 0.8371
vn -0.0000 0.4472 0.8944
vn -0.0000 0.3473 0.9377
vn 1.0000 -0.0000 -0.0000
vn -0.4472 -0.0000 0.8944
vn -0.0000 -0.4472 0.8944
vn 0.4472 -0.0000 0.8944
vt 0.608894 0.842278
vt 0.354544 0.483164
vt 0.358126 0.421544
vt 0.861709 0.552745
vt 0.861709 0.581172
vt 0.840652 0.581172
vt 0.851180 0.552745
vt 0.861709 0.370602
vt 0.861709 0.391659
vt 0.840652 0.391659
vt 0.851180 0.370602
vt 0.861709 0.407768
vt 0.851180 0.407768
vt 1.000000 0.000405
vt 1.000000 0.105689
vt 0.989472 0.105689
vt 0.989472 0.000405
vt 0.968415 0.104880
vt 0.968415 0.000000
vt 0.989472 0.000000
vt 0.989472 0.104880
vt 0.968415 0.841873
vt 0.968415 0.736589
vt 0.989471 0.736589
vt 0.989471 0.841873
vt 1.000000 0.737398
vt 1.000000 0.842278
vt 0.989471 0.842278
vt 0.989471 0.737398
vt 0.861709 0.602229
vt 0.840652 0.602229
vt 0.818857 0.000405
vt 0.818857 0.105689
vt 0.803593 0.105689
vt 0.803593 0.000405
vt 0.818857 0.737398
vt 0.818857 0.842278
vt 0.803593 0.842278
vt 0.803593 0.737398
vt 0.840652 0.737398
vt 0.840652 0.842278
vt 0.840652 0.105689
vt 0.818857 0.000405
vt 0.840652 0.000405
vt 0.629890 0.737398
vt 0.629890 0.842278
vt 0.608894 0.842278
vt 0.608894 0.737398
vt 0.608894 0.105689
vt 0.608894 0.000405
vt 0.629890 0.000405
vt 0.629890 0.105689
vt 0.659033 0.737398
vt 0.659033 0.842278
vt 0.659033 0.000405
vt 0.659033 0.105689
vt 0.951617 0.282568
vt 0.951617 0.370602
vt 0.840652 0.370602
vt 0.840652 0.282568
vt 0.675831 0.016846
vt 0.786796 0.016846
vt 0.786796 0.105689
vt 0.675830 0.105689
vt 0.667432 0.833855
vt 0.795195 0.833855
vt 0.667432 0.737398
vt 0.795195 0.737398
vt 0.865920 0.498734
vt 0.865920 0.370602
vt 0.870132 0.370602
vt 0.870132 0.498734
vt 0.667751 0.008423
vt 0.667751 0.105689
vt 0.659452 0.000405
vt 0.795514 0.008423
vt 0.659452 0.000405
vt 0.803205 0.000405
vt 0.795514 0.105689
vt 0.803205 0.000405
vt 0.848731 0.185301
vt 0.959697 0.185301
vt 0.968414 0.193724
vt 0.840652 0.193724
vt 0.848731 0.097267
vt 0.840652 0.097267
vt 0.959697 0.097267
vt 0.968414 0.097267
vt 0.861709 0.467060
vt 0.861709 0.370602
vt 0.865920 0.370602
vt 0.865920 0.467060
vt 0.865920 0.661593
vt 0.865920 0.758050
vt 0.861709 0.758050
vt 0.861709 0.661593
vt 0.171730 0.105689
vt 0.000000 0.105689
vt 0.000000 0.000405
vt -0.000000 0.842278
vt 0.208094 0.731329
vt -0.000000 0.737398
vt 0.171730 0.737398
vt 0.208094 0.111758
vt 0.608894 0.000405
vt 0.243060 0.713355
vt 0.243060 0.129732
vt 0.275286 0.158921
vt 0.275286 0.684167
vt 0.303531 0.644886
vt 0.303531 0.198201
vt 0.326712 0.246064
vt 0.326712 0.597023
vt 0.343937 0.542416
vt 0.343937 0.300671
vt 0.354544 0.359923
s 0
usemtl Material.002
f 2/1/1 29/2/1 33/3/1
f 38/97/1 37/98/1 40/99/1
f 2/1/1 4/100/1 25/101/1
f 4/100/1 35/102/1 24/103/1
f 4/100/1 24/103/1 25/101/1
f 38/97/1 40/99/1 39/104/1
f 40/99/1 31/105/1 39/104/1
f 2/1/1 25/101/1 26/106/1
f 43/107/1 39/104/1 31/105/1
f 44/108/1 43/107/1 31/105/1
f 2/1/1 26/106/1 28/109/1
f 2/1/1 28/109/1 27/110/1
f 42/111/1 44/108/1 31/105/1
f 41/112/1 42/111/1 31/105/1
f 2/1/1 27/110/1 34/113/1
f 2/1/1 34/113/1 30/114/1
f 41/112/1 31/105/1 36/115/1
f 31/105/1 2/1/1 33/3/1
f 36/115/1 31/105/1 32/116/1
f 32/116/1 31/105/1 33/3/1
f 2/1/1 30/114/1 29/2/1
usemtl Material.003
f 6/4/2 5/5/2 8/6/2 17/7/2
f 4/8/2 3/9/2 11/10/2 10/11/2
f 3/9/2 7/12/2 16/13/2 11/10/2
f 7/12/2 6/4/2 17/7/2 16/13/2
f 40/14/3 37/15/3 45/16/3 46/17/3
f 48/18/4 9/19/4 1/20/4 47/21/4
f 51/22/4 52/23/4 49/24/4 50/25/4
f 35/26/3 4/27/3 10/28/3 53/29/3
f 5/5/2 1/30/2 9/31/2 8/6/2
f 56/32/5 57/33/5 54/34/5 55/35/5
f 59/36/5 11/37/5 16/38/5 58/39/5
f 53/40/6 10/41/6 11/37/6 59/36/6
f 45/42/6 57/33/6 56/43/6 46/44/6
f 60/45/1 8/46/1 9/47/1 48/48/1
f 52/49/1 51/50/1 61/51/1 62/52/1
f 63/53/7 17/54/7 8/46/7 60/45/7
f 62/52/7 61/51/7 64/55/7 65/56/7
f 67/57/1 15/58/1 13/59/1 66/60/1
f 14/61/1 12/62/1 69/63/1 68/64/1
f 19/65/1 18/66/1 16/38/1 17/54/1
f 70/67/1 19/65/1 17/54/1 63/53/1
f 16/38/1 18/66/1 71/68/1 58/39/1
f 18/69/8 19/70/8 23/71/8 22/72/8
f 20/73/6 72/74/6 65/56/6 64/55/6 73/75/6
f 21/76/9 20/73/9 73/77/9 74/78/9
f 75/79/10 21/76/10 74/80/10 55/35/10 54/34/10
f 20/73/10 14/61/10 68/64/10 72/74/10
f 12/62/11 14/61/11 20/73/11 21/76/11
f 12/62/6 21/76/6 75/79/6 69/63/6
f 13/81/9 15/82/9 22/83/9 23/84/9
f 66/85/10 13/81/10 23/84/10 76/86/10
f 22/83/6 15/82/6 67/87/6 77/88/6
f 71/89/4 18/90/4 22/91/4 77/92/4
f 76/93/3 23/94/3 19/95/3 70/96/3
f 37/15/2 49/24/2 52/23/2 62/52/2 65/56/2 72/74/2 68/64/2 69/63/2 75/79/2 54/34/2 57/33/2 45/42/2
f 46/44/8 56/43/8 55/35/8 74/80/8 73/77/8 64/55/8 61/51/8 51/50/8 50/25/8 40/14/8
f 47/21/8 35/26/8 53/29/8 59/36/8 58/39/8 71/68/8 77/92/8 67/87/8 66/60/8 76/86/8 70/96/8 63/53/8 60/45/8 48/48/8
