# Blender 5.1.2
# www.blender.org
mtllib wall.mtl
o Plane
v -2.000000 0.000000 2.000000
v 2.000000 0.000000 2.000000
v -2.000000 6.000000 2.000000
v 2.000000 6.000000 2.000000
v 0.000000 0.000000 2.000000
v -2.000000 1.000000 2.000000
v 1.000000 0.000000 2.000000
v -1.000000 0.000000 2.000000
v 2.000000 1.000000 2.000000
v 2.000000 1.100000 2.000000
v 0.000000 1.100000 2.000000
v -2.000000 1.100000 2.000000
v 1.000000 1.100000 2.000000
v -1.000000 1.100000 2.000000
v -2.000000 0.100000 2.000000
v 2.000000 0.100000 2.000000
v 2.000000 0.235000 2.000000
v -2.000000 0.235000 2.000000
v 2.000000 0.923500 2.000000
v -2.000000 0.923500 2.000000
v -2.000000 0.100000 2.100000
v -2.000000 0.000000 2.100000
v 1.000000 0.000000 2.100000
v 2.000000 0.000000 2.100000
v -1.000000 0.000000 2.100000
v 0.000000 0.000000 2.100000
v -2.000000 1.100000 2.050000
v -2.000000 1.000000 2.100000
v 1.920000 0.843500 2.050000
v 2.000000 1.000000 2.100000
v 0.000000 0.883500 2.030000
v 0.000000 1.000000 2.100000
v 0.920000 0.843500 2.050000
v 1.000000 1.000000 2.100000
v -1.080000 0.843500 2.050000
v -1.000000 1.000000 2.100000
v 2.000000 1.100000 2.050000
v 0.000000 1.100000 2.050000
v 1.000000 1.100000 2.050000
v -1.000000 1.100000 2.050000
v -1.920000 0.315000 2.050000
v 2.000000 0.100000 2.100000
v 0.000000 0.100000 2.100000
v 1.000000 0.100000 2.100000
v -1.000000 0.100000 2.100000
v 1.920000 0.315000 2.050000
v 0.000000 0.275000 2.030000
v 0.920000 0.315000 2.050000
v -1.080000 0.315000 2.050000
v -1.920000 0.843500 2.050000
v -2.000000 0.923500 2.050000
v -2.000000 0.235000 2.050000
v -0.920000 0.315000 2.050000
v -0.920000 0.843500 2.050000
v -1.960000 0.883500 2.050000
v -1.960000 0.275000 2.050000
v -1.040000 0.275000 2.050000
v -1.040000 0.883500 2.050000
v 0.000000 0.235000 2.050000
v -1.000000 0.235000 2.050000
v 1.080000 0.315000 2.050000
v 1.080000 0.843500 2.050000
v -1.000000 0.923500 2.050000
v 0.000000 0.923500 2.050000
v 0.000000 0.315000 2.050000
v -0.960000 0.275000 2.030000
v 0.960000 0.275000 2.030000
v 0.960000 0.883500 2.030000
v -0.960000 0.883500 2.030000
v 0.000000 0.843500 2.050000
v 2.000000 0.235000 2.050000
v 1.000000 0.235000 2.050000
v 2.000000 0.923500 2.050000
v 1.000000 0.923500 2.050000
v 1.960000 0.275000 2.030000
v 1.040000 0.275000 2.030000
v 1.960000 0.883500 2.030000
v 1.040000 0.883500 2.030000
v -1.960000 0.883500 2.030000
v -1.960000 0.275000 2.030000
v -1.040000 0.275000 2.030000
v -1.040000 0.883500 2.030000
v -1.920000 0.843500 2.050000
v -1.920000 0.315000 2.050000
v -1.080000 0.315000 2.050000
v -1.080000 0.843500 2.050000
v -2.000000 0.000000 -2.000000
v -2.000000 0.000000 2.000000
v -2.000000 6.000000 -2.000000
v -2.000000 6.000000 2.000000
v -2.000000 0.000000 0.000000
v -2.000000 1.000000 -2.000000
v -2.000000 0.000000 1.000000
v -2.000000 0.000000 -1.000000
v -2.000000 1.000000 2.000000
v -2.000000 1.100000 2.000000
v -2.000000 1.100000 0.000000
v -2.000000 1.100000 -2.000000
v -2.000000 1.100000 1.000000
v -2.000000 1.100000 -1.000000
v -2.000000 0.100000 -2.000000
v -2.000000 0.100000 2.000000
v -2.000000 0.235000 2.000000
v -2.000000 0.235000 -2.000000
v -2.000000 0.923500 2.000000
v -2.000000 0.923500 -2.000000
v -2.100000 0.100000 -2.000000
v -2.100000 0.000000 -2.000000
v -2.100000 0.000000 1.000000
v -2.100000 0.000000 2.000000
v -2.100000 0.000000 -1.000000
v -2.100000 0.000000 0.000000
v -2.050000 1.100000 -2.000000
v -2.100000 1.000000 -2.000000
v -2.050000 0.843500 1.920000
v -2.100000 1.000000 2.000000
v -2.030000 0.883500 0.000000
v -2.100000 1.000000 0.000000
v -2.050000 0.843500 0.920000
v -2.100000 1.000000 1.000000
v -2.050000 0.843500 -1.080000
v -2.100000 1.000000 -1.000000
v -2.050000 1.100000 2.000000
v -2.050000 1.100000 0.000000
v -2.050000 1.100000 1.000000
v -2.050000 1.100000 -1.000000
v -2.050000 0.315000 -1.920000
v -2.100000 0.100000 2.000000
v -2.100000 0.100000 0.000000
v -2.100000 0.100000 1.000000
v -2.100000 0.100000 -1.000000
v -2.050000 0.315000 1.920000
v -2.030000 0.275000 0.000000
v -2.050000 0.315000 0.920000
v -2.050000 0.315000 -1.080000
v -2.050000 0.843500 -1.920000
v -2.050000 0.923500 -2.000000
v -2.050000 0.235000 -2.000000
v -2.050000 0.315000 -0.920000
v -2.050000 0.843500 -0.920000
v -2.050000 0.883500 -1.960000
v -2.050000 0.275000 -1.960000
v -2.050000 0.275000 -1.040000
v -2.050000 0.883500 -1.040000
v -2.050000 0.235000 0.000000
v -2.050000 0.235000 -1.000000
v -2.050000 0.315000 1.080000
v -2.050000 0.843500 1.080000
v -2.050000 0.923500 -1.000000
v -2.050000 0.923500 0.000000
v -2.050000 0.315000 0.000000
v -2.030000 0.275000 -0.960000
v -2.030000 0.275000 0.960000
v -2.030000 0.883500 0.960000
v -2.030000 0.883500 -0.960000
v -2.050000 0.843500 0.000000
v -2.050000 0.235000 2.000000
v -2.050000 0.235000 1.000000
v -2.050000 0.923500 2.000000
v -2.050000 0.923500 1.000000
v -2.030000 0.275000 1.960000
v -2.030000 0.275000 1.040000
v -2.030000 0.883500 1.960000
v -2.030000 0.883500 1.040000
v -2.030000 0.883500 -1.960000
v -2.030000 0.275000 -1.960000
v -2.030000 0.275000 -1.040000
v -2.030000 0.883500 -1.040000
v -2.050000 0.843500 -1.920000
v -2.050000 0.315000 -1.920000
v -2.050000 0.315000 -1.080000
v -2.050000 0.843500 -1.080000
v 2.000000 0.000000 -2.000000
v -2.000000 0.000000 -2.000000
v 2.000000 6.000000 -1.999999
v -2.000000 6.000000 -1.999999
v -0.000000 0.000000 -2.000000
v 2.000000 1.000000 -2.000000
v -1.000000 0.000000 -2.000000
v 1.000000 0.000000 -2.000000
v -2.000000 1.000000 -2.000000
v -2.000000 1.100000 -2.000000
v -0.000000 1.100000 -2.000000
v 2.000000 1.100000 -2.000000
v -1.000000 1.100000 -2.000000
v 1.000000 1.100000 -2.000000
v 2.000000 0.100000 -2.000000
v -2.000000 0.100000 -2.000000
v -2.000000 0.235000 -2.000000
v 2.000000 0.235000 -2.000000
v -2.000000 0.923500 -2.000000
v 2.000000 0.923500 -2.000000
v 2.000000 0.100000 -2.100000
v 2.000000 0.000000 -2.100000
v -1.000000 0.000000 -2.100000
v -2.000000 0.000000 -2.099999
v 1.000000 0.000000 -2.100000
v -0.000000 0.000000 -2.100000
v 2.000000 1.100000 -2.050000
v 2.000000 1.000000 -2.100000
v -1.920000 0.843500 -2.049999
v -2.000000 1.000000 -2.099999
v -0.000000 0.883500 -2.030000
v -0.000000 1.000000 -2.100000
v -0.920000 0.843500 -2.050000
v -1.000000 1.000000 -2.100000
v 1.080000 0.843500 -2.050000
v 1.000000 1.000000 -2.100000
v -2.000000 1.100000 -2.049999
v -0.000000 1.100000 -2.050000
v -1.000000 1.100000 -2.050000
v 1.000000 1.100000 -2.050000
v 1.920000 0.315000 -2.050000
v -2.000000 0.100000 -2.099999
v -0.000000 0.100000 -2.100000
v -1.000000 0.100000 -2.100000
v 1.000000 0.100000 -2.100000
v -1.920000 0.315000 -2.049999
v -0.000000 0.275000 -2.030000
v -0.920000 0.315000 -2.050000
v 1.080000 0.315000 -2.050000
v 1.920000 0.843500 -2.050000
v 2.000000 0.923500 -2.050000
v 2.000000 0.235000 -2.050000
v 0.920000 0.315000 -2.050000
v 0.920000 0.843500 -2.050000
v 1.960000 0.883500 -2.050000
v 1.960000 0.275000 -2.050000
v 1.040000 0.275000 -2.050000
v 1.040000 0.883500 -2.050000
v -0.000000 0.235000 -2.050000
v 1.000000 0.235000 -2.050000
v -1.080000 0.315000 -2.050000
v -1.080000 0.843500 -2.050000
v 1.000000 0.923500 -2.050000
v -0.000000 0.923500 -2.050000
v -0.000000 0.315000 -2.050000
v 0.960000 0.275000 -2.030000
v -0.960000 0.275000 -2.030000
v -0.960000 0.883500 -2.030000
v 0.960000 0.883500 -2.030000
v -0.000000 0.843500 -2.050000
v -2.000000 0.235000 -2.049999
v -1.000000 0.235000 -2.050000
v -2.000000 0.923500 -2.049999
v -1.000000 0.923500 -2.050000
v -1.960000 0.275000 -2.029999
v -1.040000 0.275000 -2.030000
v -1.960000 0.883500 -2.029999
v -1.040000 0.883500 -2.030000
v 1.960000 0.883500 -2.030000
v 1.960000 0.275000 -2.030000
v 1.040000 0.275000 -2.030000
v 1.040000 0.883500 -2.030000
v 1.920000 0.843500 -2.050000
v 1.920000 0.315000 -2.050000
v 1.080000 0.315000 -2.050000
v 1.080000 0.843500 -2.050000
v 2.000000 0.000000 1.999999
v 1.999999 0.000000 -2.000000
v 2.000000 6.000000 2.000000
v 1.999999 6.000000 -2.000000
v 2.000000 0.000000 -0.000000
v 2.000000 1.000000 1.999999
v 1.999999 0.000000 -1.000000
v 2.000000 0.000000 1.000000
v 1.999999 1.000000 -2.000000
v 1.999999 1.100000 -2.000000
v 2.000000 1.100000 -0.000000
v 2.000000 1.100000 1.999999
v 1.999999 1.100000 -1.000000
v 2.000000 1.100000 1.000000
v 2.000000 0.100000 1.999999
v 1.999999 0.100000 -2.000000
v 1.999999 0.235000 -2.000000
v 2.000000 0.235000 1.999999
v 1.999999 0.923500 -2.000000
v 2.000000 0.923500 1.999999
v 2.100000 0.100000 1.999999
v 2.100000 0.000000 1.999999
v 2.099999 0.000000 -1.000000
v 2.099999 0.000000 -2.000000
v 2.099999 0.000000 1.000000
v 2.099999 0.000000 -0.000000
v 2.050000 1.100000 1.999999
v 2.100000 1.000000 1.999999
v 2.049999 0.843500 -1.920000
v 2.099999 1.000000 -2.000000
v 2.029999 0.883500 -0.000000
v 2.099999 1.000000 -0.000000
v 2.049999 0.843500 -0.920000
v 2.099999 1.000000 -1.000000
v 2.049999 0.843500 1.079999
v 2.099999 1.000000 1.000000
v 2.049999 1.100000 -2.000000
v 2.049999 1.100000 -0.000000
v 2.049999 1.100000 -1.000000
v 2.049999 1.100000 1.000000
v 2.050000 0.315000 1.919999
v 2.099999 0.100000 -2.000000
v 2.099999 0.100000 -0.000000
v 2.099999 0.100000 -1.000000
v 2.099999 0.100000 1.000000
v 2.049999 0.315000 -1.920000
v 2.029999 0.275000 -0.000000
v 2.049999 0.315000 -0.920000
v 2.049999 0.315000 1.079999
v 2.050000 0.843500 1.919999
v 2.050000 0.923500 1.999999
v 2.050000 0.235000 1.999999
v 2.049999 0.315000 0.920000
v 2.049999 0.843500 0.920000
v 2.050000 0.883500 1.959999
v 2.050000 0.275000 1.959999
v 2.049999 0.275000 1.039999
v 2.049999 0.883500 1.039999
v 2.049999 0.235000 -0.000000
v 2.049999 0.235000 1.000000
v 2.049999 0.315000 -1.080000
v 2.049999 0.843500 -1.080000
v 2.049999 0.923500 1.000000
v 2.049999 0.923500 -0.000000
v 2.049999 0.315000 -0.000000
v 2.029999 0.275000 0.960000
v 2.029999 0.275000 -0.960000
v 2.029999 0.883500 -0.960000
v 2.029999 0.883500 0.960000
v 2.049999 0.843500 -0.000000
v 2.049999 0.235000 -2.000000
v 2.049999 0.235000 -1.000000
v 2.049999 0.923500 -2.000000
v 2.049999 0.923500 -1.000000
v 2.029999 0.275000 -1.960000
v 2.029999 0.275000 -1.040000
v 2.029999 0.883500 -1.960000
v 2.029999 0.883500 -1.040000
v 2.030000 0.883500 1.959999
v 2.030000 0.275000 1.959999
v 2.029999 0.275000 1.039999
v 2.029999 0.883500 1.039999
v 2.050000 0.843500 1.919999
v 2.050000 0.315000 1.919999
v 2.049999 0.315000 1.079999
v 2.049999 0.843500 1.079999
vn -0.0000 -1.0000 -0.0000
vn 1.0000 -0.0000 -0.0000
vn -0.0000 -0.0000 1.0000
vn -1.0000 -0.0000 -0.0000
vn -0.0000 1.0000 -0.0000
vn -0.0000 -0.5471 0.8371
vn -0.0000 0.4472 0.8944
vn -0.0000 0.3473 0.9377
vn -0.4472 -0.0000 0.8944
vn 0.4472 -0.0000 0.8944
vn -0.0000 -0.4472 0.8944
vn -0.0000 -0.0000 -1.0000
vn -0.8371 -0.5471 -0.0000
vn -0.8944 0.4472 -0.0000
vn -0.9377 0.3473 -0.0000
vn -0.8944 -0.0000 -0.4472
vn -0.8944 -0.0000 0.4472
vn -0.8944 -0.4472 -0.0000
vn -0.0000 -0.5471 -0.8371
vn -0.0000 0.4472 -0.8944
vn -0.0000 0.3473 -0.9377
vn 0.4472 -0.0000 -0.8944
vn -0.4472 -0.0000 -0.8944
vn -0.0000 -0.4472 -0.8944
vn 0.8371 -0.5471 -0.0000
vn 0.8944 0.4472 -0.0000
vn 0.9377 0.3473 -0.0000
vn 0.8944 -0.0000 0.4472
vn 0.8944 -0.0000 -0.4472
vn 0.8944 -0.4472 -0.0000
vt 0.989471 0.421139
vt 0.989471 0.631709
vt 0.968415 0.631709
vt 0.968415 0.421139
vt 0.861709 0.602229
vt 0.861709 0.623286
vt 0.840652 0.623286
vt 0.840652 0.602229
vt 0.608894 0.842278
vt -0.000000 0.842278
vt 0.000000 0.631708
vt 0.000000 0.421139
vt 0.000000 0.210569
vt 0.000000 -0.000000
vt 0.608894 0.000000
vt 0.989471 0.210570
vt 0.968415 0.210570
vt 0.861709 0.552745
vt 0.861709 0.581172
vt 0.840652 0.581172
vt 0.851180 0.552745
vt 0.861709 0.370602
vt 0.861709 0.391659
vt 0.840652 0.391659
vt 0.851180 0.370602
vt 0.861709 0.407768
vt 0.851180 0.407768
vt 1.000000 0.421139
vt 1.000000 0.631709
vt 0.989472 0.421139
vt 0.861709 0.796690
vt 0.861709 0.812798
vt 0.840652 0.812798
vt 0.851180 0.796690
vt 0.861709 0.833855
vt 0.851180 0.833855
vt 1.000000 0.000000
vt 1.000000 0.210570
vt 0.989472 0.210570
vt 0.989472 0.000000
vt 0.989472 0.000000
vt 0.968415 0.000000
vt 0.989471 0.842278
vt 0.968415 0.842278
vt 1.000000 0.842278
vt 0.861709 0.651713
vt 0.851180 0.651713
vt 0.861709 0.602229
vt 0.840652 0.602229
vt 0.803593 0.421139
vt 0.803593 0.210570
vt 0.818857 0.210570
vt 0.818857 0.421139
vt 0.803593 0.000000
vt 0.818857 0.000000
vt 0.803593 0.842278
vt 0.803593 0.631708
vt 0.818857 0.631708
vt 0.818857 0.842278
vt 0.840652 0.631708
vt 0.840652 0.842278
vt 0.840652 0.210570
vt 0.840652 0.421139
vt 0.840652 0.000000
vt 0.608894 0.631708
vt 0.608894 0.421139
vt 0.629890 0.421139
vt 0.629890 0.631708
vt 0.608894 0.842278
vt 0.629890 0.842278
vt 0.608894 0.210569
vt 0.608894 -0.000000
vt 0.629890 -0.000000
vt 0.629890 0.210569
vt 0.659033 0.421139
vt 0.659033 0.631708
vt 0.659033 0.842278
vt 0.659033 -0.000000
vt 0.659033 0.210569
vt 0.675830 0.614863
vt 0.675830 0.421139
vt 0.786796 0.421139
vt 0.786796 0.614863
vt 0.840652 0.370602
vt 0.840652 0.193724
vt 0.951617 0.193724
vt 0.951617 0.370602
vt 0.675831 0.193724
vt 0.675831 0.016846
vt 0.786796 0.016846
vt 0.786796 0.193724
vt 0.675831 0.227415
vt 0.786796 0.227415
vt 0.667432 0.833855
vt 0.795195 0.833855
vt 0.667432 0.640131
vt 0.795195 0.640131
vt 0.865920 0.498734
vt 0.865920 0.370602
vt 0.870132 0.370602
vt 0.870132 0.498734
vt 0.865920 0.626865
vt 0.865920 0.498734
vt 0.870132 0.498734
vt 0.870132 0.626865
vt 0.667751 0.421139
vt 0.667751 0.623286
vt 0.667751 0.218992
vt 0.795514 0.218992
vt 0.795514 0.623286
vt 0.795514 0.421139
vt 0.667751 0.008423
vt 0.667751 0.202147
vt 0.795514 0.008423
vt 0.795514 0.202147
vt 0.848731 0.185301
vt 0.959697 0.185301
vt 0.968414 0.193724
vt 0.840652 0.193724
vt 0.848731 0.008423
vt 0.840652 0.000000
vt 0.959697 0.008423
vt 0.968414 0.000000
vt 0.861709 0.564326
vt 0.861709 0.370602
vt 0.865920 0.370602
vt 0.865920 0.564326
vt 0.861709 0.758050
vt 0.861709 0.564326
vt 0.865920 0.564326
vt 0.865920 0.758050
s 0
usemtl Material.002
f 3/9/3 12/10/3 14/11/3 11/12/3 13/13/3 10/14/3 4/15/3
f 89/9/4 98/10/4 100/11/4 97/12/4 99/13/4 96/14/4 90/15/4
f 175/9/12 184/10/12 186/11/12 183/12/12 185/13/12 182/14/12 176/15/12
f 261/9/2 270/10/2 272/11/2 269/12/2 271/13/2 268/14/2 262/15/2
usemtl Material.003
f 5/1/1 7/2/1 23/3/1 26/4/1
f 2/5/2 16/6/2 42/7/2 24/8/2
f 8/16/1 5/1/1 26/4/1 25/17/1
f 18/18/4 15/19/4 21/20/4 52/21/4
f 12/22/4 6/23/4 28/24/4 27/25/4
f 6/23/4 20/26/4 51/27/4 28/24/4
f 11/28/5 14/29/5 40/2/5 38/30/5
f 19/31/2 9/32/2 30/33/2 73/34/2
f 9/32/2 10/35/2 37/36/2 30/33/2
f 20/26/4 18/18/4 52/21/4 51/27/4
f 10/37/5 13/38/5 39/39/5 37/40/5
f 1/41/1 8/16/1 25/17/1 22/42/1
f 13/38/5 11/28/5 38/30/5 39/39/5
f 7/2/1 2/43/1 24/44/1 23/3/1
f 14/29/5 12/45/5 27/43/5 40/2/5
f 17/46/2 19/31/2 73/34/2 71/47/2
f 15/19/4 1/48/4 22/49/4 21/20/4
f 16/6/2 17/46/2 71/47/2 42/7/2
f 64/50/6 74/51/6 34/52/6 32/53/6
f 74/51/6 73/54/6 30/55/6 34/52/6
f 51/56/6 63/57/6 36/58/6 28/59/6
f 63/57/6 64/50/6 32/53/6 36/58/6
f 28/59/7 36/58/7 40/60/7 27/61/7
f 32/53/7 34/52/7 39/62/7 38/63/7
f 34/52/7 30/55/7 37/64/7 39/62/7
f 36/58/7 32/53/7 38/63/7 40/60/7
f 25/65/3 26/66/3 43/67/3 45/68/3
f 22/69/3 25/65/3 45/68/3 21/70/3
f 23/71/3 24/72/3 42/73/3 44/74/3
f 26/66/3 23/71/3 44/74/3 43/67/3
f 45/68/8 43/67/8 59/75/8 60/76/8
f 21/70/8 45/68/8 60/76/8 52/77/8
f 44/74/8 42/73/8 71/78/8 72/79/8
f 43/67/8 44/74/8 72/79/8 59/75/8
f 53/80/3 65/81/3 70/82/3 54/83/3
f 41/84/3 49/85/3 35/86/3 50/87/3
f 61/88/3 46/89/3 29/90/3 62/91/3
f 65/81/3 48/92/3 33/93/3 70/82/3
f 56/94/3 55/95/3 51/56/3 52/77/3
f 57/96/3 56/94/3 52/77/3 60/76/3
f 58/97/3 57/96/3 60/76/3 63/57/3
f 55/95/3 58/97/3 63/57/3 51/56/3
f 49/84/3 41/84/3 84/84/3 85/84/3
f 55/98/2 56/99/2 80/100/2 79/101/2
f 50/84/3 35/84/3 86/84/3 83/84/3
f 57/102/4 58/103/4 82/104/4 81/105/4
f 47/106/7 66/107/7 60/76/7 59/75/7
f 67/108/7 47/106/7 59/75/7 72/79/7
f 68/109/9 67/108/9 72/79/9 74/51/9
f 66/107/10 69/110/10 63/57/10 60/76/10
f 69/110/11 31/111/11 64/50/11 63/57/11
f 31/111/11 68/109/11 74/51/11 64/50/11
f 65/81/11 53/80/11 66/107/11 47/106/11
f 48/92/11 65/81/11 47/106/11 67/108/11
f 33/93/10 48/92/10 67/108/10 68/109/10
f 53/80/9 54/83/9 69/110/9 66/107/9
f 54/83/7 70/82/7 31/111/7 69/110/7
f 70/82/7 33/93/7 68/109/7 31/111/7
f 75/112/7 76/113/7 72/79/7 71/78/7
f 77/114/9 75/112/9 71/78/9 73/54/9
f 76/113/10 78/115/10 74/51/10 72/79/10
f 78/115/11 77/114/11 73/54/11 74/51/11
f 46/89/11 61/88/11 76/113/11 75/112/11
f 29/90/10 46/89/10 75/112/10 77/114/10
f 61/88/9 62/91/9 78/115/9 76/113/9
f 62/91/7 29/90/7 77/114/7 78/115/7
f 84/116/9 83/117/9 79/118/9 80/119/9
f 85/120/11 84/116/11 80/119/11 81/121/11
f 86/122/10 85/120/10 81/121/10 82/123/10
f 83/117/7 86/122/7 82/123/7 79/118/7
f 58/124/1 55/125/1 79/126/1 82/127/1
f 56/128/5 57/129/5 81/130/5 80/131/5
f 35/84/3 49/84/3 85/84/3 86/84/3
f 41/84/3 50/84/3 83/84/3 84/84/3
f 91/1/1 93/2/1 109/3/1 112/4/1
f 88/5/3 102/6/3 128/7/3 110/8/3
f 94/16/1 91/1/1 112/4/1 111/17/1
f 104/18/12 101/19/12 107/20/12 138/21/12
f 98/22/12 92/23/12 114/24/12 113/25/12
f 92/23/12 106/26/12 137/27/12 114/24/12
f 97/28/5 100/29/5 126/2/5 124/30/5
f 105/31/3 95/32/3 116/33/3 159/34/3
f 95/32/3 96/35/3 123/36/3 116/33/3
f 106/26/12 104/18/12 138/21/12 137/27/12
f 96/37/5 99/38/5 125/39/5 123/40/5
f 87/41/1 94/16/1 111/17/1 108/42/1
f 99/38/5 97/28/5 124/30/5 125/39/5
f 93/2/1 88/43/1 110/44/1 109/3/1
f 100/29/5 98/45/5 113/43/5 126/2/5
f 103/46/3 105/31/3 159/34/3 157/47/3
f 101/19/12 87/48/12 108/49/12 107/20/12
f 102/6/3 103/46/3 157/47/3 128/7/3
f 150/50/13 160/51/13 120/52/13 118/53/13
f 160/51/13 159/54/13 116/55/13 120/52/13
f 137/56/13 149/57/13 122/58/13 114/59/13
f 149/57/13 150/50/13 118/53/13 122/58/13
f 114/59/14 122/58/14 126/60/14 113/61/14
f 118/53/14 120/52/14 125/62/14 124/63/14
f 120/52/14 116/55/14 123/64/14 125/62/14
f 122/58/14 118/53/14 124/63/14 126/60/14
f 111/65/4 112/66/4 129/67/4 131/68/4
f 108/69/4 111/65/4 131/68/4 107/70/4
f 109/71/4 110/72/4 128/73/4 130/74/4
f 112/66/4 109/71/4 130/74/4 129/67/4
f 131/68/15 129/67/15 145/75/15 146/76/15
f 107/70/15 131/68/15 146/76/15 138/77/15
f 130/74/15 128/73/15 157/78/15 158/79/15
f 129/67/15 130/74/15 158/79/15 145/75/15
f 139/80/4 151/81/4 156/82/4 140/83/4
f 127/84/4 135/85/4 121/86/4 136/87/4
f 147/88/4 132/89/4 115/90/4 148/91/4
f 151/81/4 134/92/4 119/93/4 156/82/4
f 142/94/4 141/95/4 137/56/4 138/77/4
f 143/96/4 142/94/4 138/77/4 146/76/4
f 144/97/4 143/96/4 146/76/4 149/57/4
f 141/95/4 144/97/4 149/57/4 137/56/4
f 135/84/3 127/84/3 170/84/3 171/84/3
f 141/98/3 142/99/3 166/100/3 165/101/3
f 136/84/3 121/84/3 172/84/3 169/84/3
f 143/102/12 144/103/12 168/104/12 167/105/12
f 133/106/14 152/107/14 146/76/14 145/75/14
f 153/108/14 133/106/14 145/75/14 158/79/14
f 154/109/16 153/108/16 158/79/16 160/51/16
f 152/107/17 155/110/17 149/57/17 146/76/17
f 155/110/18 117/111/18 150/50/18 149/57/18
f 117/111/18 154/109/18 160/51/18 150/50/18
f 151/81/18 139/80/18 152/107/18 133/106/18
f 134/92/18 151/81/18 133/106/18 153/108/18
f 119/93/17 134/92/17 153/108/17 154/109/17
f 139/80/16 140/83/16 155/110/16 152/107/16
f 140/83/14 156/82/14 117/111/14 155/110/14
f 156/82/14 119/93/14 154/109/14 117/111/14
f 161/112/14 162/113/14 158/79/14 157/78/14
f 163/114/16 161/112/16 157/78/16 159/54/16
f 162/113/17 164/115/17 160/51/17 158/79/17
f 164/115/18 163/114/18 159/54/18 160/51/18
f 132/89/18 147/88/18 162/113/18 161/112/18
f 115/90/17 132/89/17 161/112/17 163/114/17
f 147/88/16 148/91/16 164/115/16 162/113/16
f 148/91/14 115/90/14 163/114/14 164/115/14
f 170/116/16 169/117/16 165/118/16 166/119/16
f 171/120/18 170/116/18 166/119/18 167/121/18
f 172/122/17 171/120/17 167/121/17 168/123/17
f 169/117/14 172/122/14 168/123/14 165/118/14
f 144/124/1 141/125/1 165/126/1 168/127/1
f 142/128/5 143/129/5 167/130/5 166/131/5
f 121/84/3 135/84/3 171/84/3 172/84/3
f 127/84/3 136/84/3 169/84/3 170/84/3
f 177/1/1 179/2/1 195/3/1 198/4/1
f 174/5/4 188/6/4 214/7/4 196/8/4
f 180/16/1 177/1/1 198/4/1 197/17/1
f 190/18/2 187/19/2 193/20/2 224/21/2
f 184/22/2 178/23/2 200/24/2 199/25/2
f 178/23/2 192/26/2 223/27/2 200/24/2
f 183/28/5 186/29/5 212/2/5 210/30/5
f 191/31/4 181/32/4 202/33/4 245/34/4
f 181/32/4 182/35/4 209/36/4 202/33/4
f 192/26/2 190/18/2 224/21/2 223/27/2
f 182/37/5 185/38/5 211/39/5 209/40/5
f 173/41/1 180/16/1 197/17/1 194/42/1
f 185/38/5 183/28/5 210/30/5 211/39/5
f 179/2/1 174/43/1 196/44/1 195/3/1
f 186/29/5 184/45/5 199/43/5 212/2/5
f 189/46/4 191/31/4 245/34/4 243/47/4
f 187/19/2 173/48/2 194/49/2 193/20/2
f 188/6/4 189/46/4 243/47/4 214/7/4
f 236/50/19 246/51/19 206/52/19 204/53/19
f 246/51/19 245/54/19 202/55/19 206/52/19
f 223/56/19 235/57/19 208/58/19 200/59/19
f 235/57/19 236/50/19 204/53/19 208/58/19
f 200/59/20 208/58/20 212/60/20 199/61/20
f 204/53/20 206/52/20 211/62/20 210/63/20
f 206/52/20 202/55/20 209/64/20 211/62/20
f 208/58/20 204/53/20 210/63/20 212/60/20
f 197/65/12 198/66/12 215/67/12 217/68/12
f 194/69/12 197/65/12 217/68/12 193/70/12
f 195/71/12 196/72/12 214/73/12 216/74/12
f 198/66/12 195/71/12 216/74/12 215/67/12
f 217/68/21 215/67/21 231/75/21 232/76/21
f 193/70/21 217/68/21 232/76/21 224/77/21
f 216/74/21 214/73/21 243/78/21 244/79/21
f 215/67/21 216/74/21 244/79/21 231/75/21
f 225/80/12 237/81/12 242/82/12 226/83/12
f 213/84/12 221/85/12 207/86/12 222/87/12
f 233/88/12 218/89/12 201/90/12 234/91/12
f 237/81/12 220/92/12 205/93/12 242/82/12
f 228/94/12 227/95/12 223/56/12 224/77/12
f 229/96/12 228/94/12 224/77/12 232/76/12
f 230/97/12 229/96/12 232/76/12 235/57/12
f 227/95/12 230/97/12 235/57/12 223/56/12
f 221/84/3 213/84/3 256/84/3 257/84/3
f 227/98/4 228/99/4 252/100/4 251/101/4
f 222/84/3 207/84/3 258/84/3 255/84/3
f 229/102/2 230/103/2 254/104/2 253/105/2
f 219/106/20 238/107/20 232/76/20 231/75/20
f 239/108/20 219/106/20 231/75/20 244/79/20
f 240/109/22 239/108/22 244/79/22 246/51/22
f 238/107/23 241/110/23 235/57/23 232/76/23
f 241/110/24 203/111/24 236/50/24 235/57/24
f 203/111/24 240/109/24 246/51/24 236/50/24
f 237/81/24 225/80/24 238/107/24 219/106/24
f 220/92/24 237/81/24 219/106/24 239/108/24
f 205/93/23 220/92/23 239/108/23 240/109/23
f 225/80/22 226/83/22 241/110/22 238/107/22
f 226/83/20 242/82/20 203/111/20 241/110/20
f 242/82/20 205/93/20 240/109/20 203/111/20
f 247/112/20 248/113/20 244/79/20 243/78/20
f 249/114/22 247/112/22 243/78/22 245/54/22
f 248/113/23 250/115/23 246/51/23 244/79/23
f 250/115/24 249/114/24 245/54/24 246/51/24
f 218/89/24 233/88/24 248/113/24 247/112/24
f 201/90/23 218/89/23 247/112/23 249/114/23
f 233/88/22 234/91/22 250/115/22 248/113/22
f 234/91/20 201/90/20 249/114/20 250/115/20
f 256/116/22 255/117/22 251/118/22 252/119/22
f 257/120/24 256/116/24 252/119/24 253/121/24
f 258/122/23 257/120/23 253/121/23 254/123/23
f 255/117/20 258/122/20 254/123/20 251/118/20
f 230/124/1 227/125/1 251/126/1 254/127/1
f 228/128/5 229/129/5 253/130/5 252/131/5
f 207/84/3 221/84/3 257/84/3 258/84/3
f 213/84/3 222/84/3 255/84/3 256/84/3
f 263/1/1 265/2/1 281/3/1 284/4/1
f 260/5/12 274/6/12 300/7/12 282/8/12
f 266/16/1 263/1/1 284/4/1 283/17/1
f 276/18/3 273/19/3 279/20/3 310/21/3
f 270/22/3 264/23/3 286/24/3 285/25/3
f 264/23/3 278/26/3 309/27/3 286/24/3
f 269/28/5 272/29/5 298/2/5 296/30/5
f 277/31/12 267/32/12 288/33/12 331/34/12
f 267/32/12 268/35/12 295/36/12 288/33/12
f 278/26/3 276/18/3 310/21/3 309/27/3
f 268/37/5 271/38/5 297/39/5 295/40/5
f 259/41/1 266/16/1 283/17/1 280/42/1
f 271/38/5 269/28/5 296/30/5 297/39/5
f 265/2/1 260/43/1 282/44/1 281/3/1
f 272/29/5 270/45/5 285/43/5 298/2/5
f 275/46/12 277/31/12 331/34/12 329/47/12
f 273/19/3 259/48/3 280/49/3 279/20/3
f 274/6/12 275/46/12 329/47/12 300/7/12
f 322/50/25 332/51/25 292/52/25 290/53/25
f 332/51/25 331/54/25 288/55/25 292/52/25
f 309/56/25 321/57/25 294/58/25 286/59/25
f 321/57/25 322/50/25 290/53/25 294/58/25
f 286/59/26 294/58/26 298/60/26 285/61/26
f 290/53/26 292/52/26 297/62/26 296/63/26
f 292/52/26 288/55/26 295/64/26 297/62/26
f 294/58/26 290/53/26 296/63/26 298/60/26
f 283/65/2 284/66/2 301/67/2 303/68/2
f 280/69/2 283/65/2 303/68/2 279/70/2
f 281/71/2 282/72/2 300/73/2 302/74/2
f 284/66/2 281/71/2 302/74/2 301/67/2
f 303/68/27 301/67/27 317/75/27 318/76/27
f 279/70/27 303/68/27 318/76/27 310/77/27
f 302/74/27 300/73/27 329/78/27 330/79/27
f 301/67/27 302/74/27 330/79/27 317/75/27
f 311/80/2 323/81/2 328/82/2 312/83/2
f 299/84/2 307/85/2 293/86/2 308/87/2
f 319/88/2 304/89/2 287/90/2 320/91/2
f 323/81/2 306/92/2 291/93/2 328/82/2
f 314/94/2 313/95/2 309/56/2 310/77/2
f 315/96/2 314/94/2 310/77/2 318/76/2
f 316/97/2 315/96/2 318/76/2 321/57/2
f 313/95/2 316/97/2 321/57/2 309/56/2
f 307/84/3 299/84/3 342/84/3 343/84/3
f 313/98/12 314/99/12 338/100/12 337/101/12
f 308/84/3 293/84/3 344/84/3 341/84/3
f 315/102/3 316/103/3 340/104/3 339/105/3
f 305/106/26 324/107/26 318/76/26 317/75/26
f 325/108/26 305/106/26 317/75/26 330/79/26
f 326/109/28 325/108/28 330/79/28 332/51/28
f 324/107/29 327/110/29 321/57/29 318/76/29
f 327/110/30 289/111/30 322/50/30 321/57/30
f 289/111/30 326/109/30 332/51/30 322/50/30
f 323/81/30 311/80/30 324/107/30 305/106/30
f 306/92/30 323/81/30 305/106/30 325/108/30
f 291/93/29 306/92/29 325/108/29 326/109/29
f 311/80/28 312/83/28 327/110/28 324/107/28
f 312/83/26 328/82/26 289/111/26 327/110/26
f 328/82/26 291/93/26 326/109/26 289/111/26
f 333/112/26 334/113/26 330/79/26 329/78/26
f 335/114/28 333/112/28 329/78/28 331/54/28
f 334/113/29 336/115/29 332/51/29 330/79/29
f 336/115/30 335/114/30 331/54/30 332/51/30
f 304/89/30 319/88/30 334/113/30 333/112/30
f 287/90/29 304/89/29 333/112/29 335/114/29
f 319/88/28 320/91/28 336/115/28 334/113/28
f 320/91/26 287/90/26 335/114/26 336/115/26
f 342/116/28 341/117/28 337/118/28 338/119/28
f 343/120/30 342/116/30 338/119/30 339/121/30
f 344/122/29 343/120/29 339/121/29 340/123/29
f 341/117/26 344/122/26 340/123/26 337/118/26
f 316/124/1 313/125/1 337/126/1 340/127/1
f 314/128/5 315/129/5 339/130/5 338/131/5
f 293/84/3 307/84/3 343/84/3 344/84/3
f 299/84/3 308/84/3 341/84/3 342/84/3
