<?xml version="1.0" encoding="UTF-8"?>
<svg height="128px" viewBox="0 0 128 128" width="128px" xmlns="http://www.w3.org/2000/svg" xmlns:xlink="http://www.w3.org/1999/xlink">
    <filter id="a" height="100%" width="100%" x="0%" y="0%">
        <feColorMatrix color-interpolation-filters="sRGB" values="0 0 0 0 1 0 0 0 0 1 0 0 0 0 1 0 0 0 1 0"/>
    </filter>
    <linearGradient id="b" gradientTransform="matrix(0.232143 0 0 0.335526 -8.566909 270.783508)" gradientUnits="userSpaceOnUse" x1="88.595886" x2="536.595886" y1="-449.394012" y2="-449.394012">
        <stop offset="0" stop-color="#9a9996"/>
        <stop offset="0.0357143" stop-color="#f6f5f4"/>
        <stop offset="0.0713653" stop-color="#c0bfbc"/>
        <stop offset="0.928571" stop-color="#c0bfbc"/>
        <stop offset="0.964286" stop-color="#f6f5f4"/>
        <stop offset="1" stop-color="#9a9996"/>
    </linearGradient>
    <linearGradient id="c" gradientTransform="matrix(0.232143 0 0 0.322368 -8.566909 260.870422)" gradientUnits="userSpaceOnUse" x1="312.595886" x2="312.595886" y1="-760.14502" y2="-449.237">
        <stop offset="0" stop-color="#f6f5f4"/>
        <stop offset="1" stop-color="#deddda"/>
    </linearGradient>
    <linearGradient id="d" gradientTransform="matrix(0.1875 0 0 0.342105 5.38827 273.740051)" gradientUnits="userSpaceOnUse" x1="88.595886" x2="536.595886" y1="-449.394012" y2="-449.394012">
        <stop offset="0" stop-color="#63452c"/>
        <stop offset="0.00893046" stop-color="#b5835a"/>
        <stop offset="0.0225471" stop-color="#986a44"/>
        <stop offset="0.973846" stop-color="#986a44"/>
        <stop offset="0.991511" stop-color="#b5835a"/>
        <stop offset="1" stop-color="#63452c"/>
    </linearGradient>
    <linearGradient id="e" gradientTransform="matrix(0.954545 0 0 0.962963 354.181793 -161.333346)" gradientUnits="userSpaceOnUse" x1="-303.999969" x2="-303.999969" y1="190" y2="278">
        <stop offset="0" stop-color="#c89064"/>
        <stop offset="1" stop-color="#b5835a"/>
    </linearGradient>
    <mask id="f">
        <g filter="url(#a)">
            <rect fill-opacity="0.2" height="153.6" width="153.6" x="-12.8" y="-12.8"/>
        </g>
    </mask>
    <clipPath id="g">
        <rect height="152" width="192"/>
    </clipPath>
    <linearGradient id="h" gradientUnits="userSpaceOnUse" x1="28" x2="100" y1="67" y2="67">
        <stop offset="0"/>
        <stop offset="0.0150412" stop-color="#3d3846"/>
        <stop offset="0.0557773" stop-color="#241f31"/>
        <stop offset="0.945326" stop-color="#241f31"/>
        <stop offset="0.981446" stop-color="#3d3846"/>
        <stop offset="1"/>
    </linearGradient>
    <mask id="i">
        <g filter="url(#a)">
            <rect fill-opacity="0.5" height="153.6" width="153.6" x="-12.8" y="-12.8"/>
        </g>
    </mask>
    <clipPath id="j">
        <rect height="152" width="192"/>
    </clipPath>
    <linearGradient id="k" gradientUnits="userSpaceOnUse" x1="64" x2="64" y1="206" y2="270">
        <stop offset="0" stop-color="#ffffff"/>
        <stop offset="1" stop-color="#f6f5f4"/>
    </linearGradient>
    <mask id="l">
        <g filter="url(#a)">
            <rect fill-opacity="0.2" height="153.6" width="153.6" x="-12.8" y="-12.8"/>
        </g>
    </mask>
    <clipPath id="m">
        <rect height="152" width="192"/>
    </clipPath>
    <linearGradient id="n" gradientUnits="userSpaceOnUse" x1="63.837894" x2="63.837894" y1="44.273895" y2="87.949677">
        <stop offset="0" stop-color="#312a43"/>
        <stop offset="1" stop-color="#241f31"/>
    </linearGradient>
    <mask id="o">
        <g filter="url(#a)">
            <rect fill-opacity="0.3" height="153.6" width="153.6" x="-12.8" y="-12.8"/>
        </g>
    </mask>
    <radialGradient id="p" cx="63.879951" cy="179.42601" gradientTransform="matrix(0 0.647437 -1.011454 0 253.36116 -1.283737)" gradientUnits="userSpaceOnUse" r="40.381851">
        <stop offset="0" stop-color="#ffeba3"/>
        <stop offset="1" stop-color="#ffd66f" stop-opacity="0"/>
    </radialGradient>
    <clipPath id="q">
        <rect height="152" width="192"/>
    </clipPath>
    <mask id="r">
        <g filter="url(#a)">
            <rect fill-opacity="0.1" height="153.6" width="153.6" x="-12.8" y="-12.8"/>
        </g>
    </mask>
    <radialGradient id="s" cx="64" cy="238" gradientTransform="matrix(1 0 0 1.111111 8 -182.444445)" gradientUnits="userSpaceOnUse" r="36">
        <stop offset="0" stop-color="#ffd9aa"/>
        <stop offset="1" stop-color="#ffbe6f" stop-opacity="0"/>
    </radialGradient>
    <clipPath id="t">
        <rect height="152" width="192"/>
    </clipPath>
    <linearGradient id="u" gradientTransform="matrix(1 0 0 0.96523 0.003017 -161.323873)" gradientUnits="userSpaceOnUse" x1="67.996986" x2="59.996986" y1="184.224762" y2="184.224762">
        <stop offset="0" stop-color="#241f31"/>
        <stop offset="0.168687" stop-color="#473e5b"/>
        <stop offset="0.381551" stop-color="#362f42"/>
        <stop offset="0.598109" stop-color="#362f42"/>
        <stop offset="0.820497" stop-color="#473e5b"/>
        <stop offset="1" stop-color="#241f31"/>
    </linearGradient>
    <radialGradient id="v" cx="64" cy="181.946777" gradientTransform="matrix(0 1.127528 -1.763585 0 384.878571 110.100029)" gradientUnits="userSpaceOnUse" r="3">
        <stop offset="0" stop-color="#241f31"/>
        <stop offset="1" stop-color="#3d3846"/>
    </radialGradient>
    <radialGradient id="w" cx="64" cy="184" gradientTransform="matrix(1 0 0 3 0 -540)" gradientUnits="userSpaceOnUse" r="1">
        <stop offset="0" stop-color="#241f31"/>
        <stop offset="1"/>
    </radialGradient>
    <mask id="x">
        <g filter="url(#a)">
            <rect fill-opacity="0.2" height="153.6" width="153.6" x="-12.8" y="-12.8"/>
        </g>
    </mask>
    <linearGradient id="y" gradientUnits="userSpaceOnUse" x1="71.977974" x2="71.977974" y1="27.066086" y2="30.982437">
        <stop offset="0" stop-color="#ffffff"/>
        <stop offset="1" stop-color="#ffffff" stop-opacity="0"/>
    </linearGradient>
    <clipPath id="z">
        <rect height="152" width="192"/>
    </clipPath>
    <linearGradient id="A" gradientUnits="userSpaceOnUse" x1="63.807922" x2="63.807922" y1="5.897003" y2="10.228714">
        <stop offset="0" stop-color="#3d3846"/>
        <stop offset="0.5" stop-color="#4d435f"/>
        <stop offset="0.856668" stop-color="#241f31"/>
        <stop offset="1"/>
    </linearGradient>
    <mask id="B">
        <g filter="url(#a)">
            <rect fill-opacity="0.2" height="153.6" width="153.6" x="-12.8" y="-12.8"/>
        </g>
    </mask>
    <clipPath id="C">
        <rect height="152" width="192"/>
    </clipPath>
    <mask id="D">
        <g filter="url(#a)">
            <rect fill-opacity="0.5" height="153.6" width="153.6" x="-12.8" y="-12.8"/>
        </g>
    </mask>
    <clipPath id="E">
        <rect height="152" width="192"/>
    </clipPath>
    <path d="m 20 18 h 88 c 4.417969 0 8 3.582031 8 8 v 86 c 0 4.417969 -3.582031 8 -8 8 h -88 c -4.417969 0 -8 -3.582031 -8 -8 v -86 c 0 -4.417969 3.582031 -8 8 -8 z m 0 0" fill="url(#b)"/>
    <path d="m 20 18 h 88 c 4.417969 0 8 3.582031 8 8 v 82 c 0 4.417969 -3.582031 8 -8 8 h -88 c -4.417969 0 -8 -3.582031 -8 -8 v -82 c 0 -4.417969 3.582031 -8 8 -8 z m 0 0" fill="url(#c)"/>
    <path d="m 22.476562 16 h 83.046876 c 0.261718 0 0.476562 0.222656 0.476562 0.5 v 103 c 0 0.277344 -0.214844 0.5 -0.476562 0.5 h -83.046876 c -0.261718 0 -0.476562 -0.222656 -0.476562 -0.5 v -103 c 0 -0.277344 0.214844 -0.5 0.476562 -0.5 z m 0 0" fill="url(#d)"/>
    <path d="m 25.816406 12 c -2.113281 0 -3.816406 1.71875 -3.816406 3.851562 v 100.148438 h 84 v -100.148438 c 0 -2.132812 -1.703125 -3.851562 -3.816406 -3.851562 z m 0 0" fill="url(#e)"/>
    <g mask="url(#f)">
        <g clip-path="url(#g)" transform="matrix(1 0 0 1 -8 -16)">
            <path d="m 30 122.128906 c 0.195312 0.566406 0.28125 0.835938 0.691406 2.011719 c 0.398438 1.183594 0.769532 2.4375 1.117188 3.75 c 0.246094 0.910156 1.140625 4.300781 1.265625 4.777344 c 0.269531 1.007812 0.441406 1.441406 0.671875 2.253906 c 0.109375 0.066406 0.21875 0.132813 0.332031 0.191406 c -0.277344 -0.960937 -0.496094 -1.550781 -0.835937 -2.8125 c -0.125 -0.46875 -1.019532 -3.863281 -1.269532 -4.777343 c -0.460937 -1.703126 -0.816406 -2.898438 -1.132812 -3.804688 c -0.496094 -1.414062 -0.652344 -1.886719 -0.839844 -2.441406 z m 0 -61.511718 c 0.289062 -2.398438 0.648438 -4.726563 1.070312 -6.957032 c 0.945313 -4.886718 2.375 -8.589844 4.324219 -11.796875 c 0.992188 -1.617187 4.0625 -5.667969 4.46875 -6.34375 c 1.34375 -2.226562 1.554688 -4.398437 0.46875 -7.492187 c -0.003906 -0.007813 -0.003906 -0.019532 -0.007812 -0.027344 h -0.273438 c 0.046875 0.132812 0.082031 0.316406 0.128907 0.449219 c 0.976562 2.785156 0.8125 4.507812 -0.421876 6.554687 c -0.390624 0.648438 -3.472656 4.699219 -4.46875 6.34375 c -1.980468 3.25 -3.441406 7.027344 -4.40625 12.023438 c -0.332031 1.726562 -0.628906 3.511718 -0.882812 5.347656 z m 0 -10.609376 c 0.675781 -3.757812 1.359375 -6.648437 2.144531 -8.019531 c 3.175781 -5.535156 4.042969 -8.835937 3.679688 -13.761719 c -0.140625 0.035157 -0.28125 0.066407 -0.417969 0.109376 c 0.34375 4.425781 -0.425781 7.296874 -3.484375 12.632812 c -0.714844 1.242188 -1.328125 3.613281 -1.921875 6.511719 z m 0.019531 78.679688 c 0.070313 1.339844 0.46875 2.582031 1.125 3.652344 c -0.488281 -1.585938 -0.832031 -2.71875 -1.125 -3.652344 z m 0.359375 -49.402344 c -0.0625 4.664063 0.535156 10.722656 1.691406 18.460938 c 0.316407 2.136718 0.671876 4.355468 1.113282 7.007812 c 0.222656 1.359375 1.109375 6.597656 1.3125 7.828125 c 0.371094 2.175781 0.710937 4.390625 1.019531 6.640625 c 0.351563 2.535156 0.75 5.007813 1.199219 7.410156 c 0.175781 0.957032 0.882812 4.734376 1.046875 5.636719 c 0.21875 1.210938 0.414062 2.453125 0.582031 3.730469 h 0.234375 c -0.179687 -1.371094 -0.390625 -2.710938 -0.628906 -4.007812 c -0.164063 -0.90625 -0.871094 -4.6875 -1.046875 -5.636719 c -0.445313 -2.382813 -0.839844 -4.835938 -1.1875 -7.347657 c -0.238282 -1.777343 -0.558594 -3.851562 -1.027344 -6.6875 l -1.3125 -7.824218 c -0.4375 -2.648438 -0.796875 -4.867188 -1.113281 -6.988282 c -1.519531 -10.167968 -2.054688 -17.386718 -1.398438 -22.21875 l 0.441407 -3.265624 c 0.1875 -1.386719 0.34375 -2.507813 0.503906 -3.613282 c 0.414062 -2.882812 0.8125 -5.410156 1.257812 -7.816406 c 2.003906 -10.902344 4.59375 -18.007812 8.269532 -20.625 c 5.8125 -4.152344 9.480468 -2.167969 12.988281 4.765625 c 1.332031 2.625 2.289062 2.261719 2.222656 -0.566406 c -0.0625 -2.71875 -1.089844 -6.523438 -2.738281 -9.5625 c -1.035156 -1.90625 -2.242188 -3.125 -4.597656 -4.917969 l -1.339844 -1.015625 c -0.320313 -0.25 -0.570313 -0.453125 -0.835938 -0.671875 h -0.738281 c 0.054687 0.046875 0.09375 0.101562 0.148437 0.148438 c 0.417969 0.355468 0.851563 0.703124 1.371094 1.101562 l 1.339844 1.015625 c 2.335938 1.777344 3.527344 2.980469 4.539062 4.84375 c 1.597657 2.949219 2.582032 6.605469 2.640626 9.09375 c 0.046874 2.15625 -0.679688 2.425781 -1.890626 0.039063 c -3.558593 -7.03125 -7.289062 -9.054688 -13.160156 -4.863282 c -3.742187 2.671875 -6.378906 9.898438 -8.410156 20.9375 c -0.464844 2.5625 -0.886719 5.1875 -1.265625 7.867188 c -0.160156 1.113281 -0.3125 2.238281 -0.5 3.621094 l -0.441406 3.269531 c -0.171875 1.253906 -0.265625 2.65625 -0.289063 4.210937 z m 2.582032 2.578125 c 0.078124 5.019531 0.632812 10.207031 1.550781 15.652344 c 0.167969 0.976563 0.339843 1.949219 0.535156 3.007813 l 0.25 1.3125 l 0.226563 1.175781 c 0.285156 1.492187 0.613281 3.445312 1.085937 6.484375 c 0.15625 0.988281 1.136719 7.332031 1.464844 9.4375 c 0.929687 5.757812 1.910156 11.449218 2.941406 17.066406 h 0.234375 c -1.046875 -5.695312 -2.039062 -11.464844 -2.980469 -17.304688 c -0.332031 -2.113281 -1.308593 -8.453124 -1.464843 -9.445312 c -0.335938 -2.214844 -0.703126 -4.394531 -1.097657 -6.527344 l -0.222656 -1.175781 c -0.277344 -1.410156 -0.539063 -2.839844 -0.78125 -4.296875 c -1.8125 -10.730469 -2.171875 -20.386719 -0.257813 -29.757812 c 2.773438 -13.5625 7.699219 -22.703126 11.714844 -22.703126 c 3.996094 0 5.238282 0.425782 6.898438 3.046876 c 0.523437 0.828124 1.011718 1.800781 1.46875 2.898437 c 1.667968 3.964844 3.46875 7.214844 4.582031 7.816406 c 1.601563 0.855469 1.773437 -3.296875 0.21875 -12.984375 c -1.300781 -8.140625 -3.203125 -13.699218 -5.640625 -17.429687 c -0.039062 -0.046875 -0.078125 -0.089844 -0.117188 -0.136719 h -0.558593 c 0.191406 0.210938 0.386719 0.433594 0.574219 0.664062 c 2.398437 3.671876 4.269531 9.140626 5.550781 17.152344 c 1.496093 9.316406 1.347656 12.863282 0.011719 12.140625 c -1.070313 -0.570312 -2.847657 -3.785156 -4.484376 -7.679687 c -0.46875 -1.125 -0.96875 -2.121094 -1.503906 -2.972656 c -1.699218 -2.679688 -2.96875 -3.117188 -7 -3.117188 c -4.09375 0 -9.089844 9.261719 -11.902344 23.039062 c -0.976562 4.769532 -1.371093 9.617188 -1.296874 14.636719 z m 2.519531 6.417969 c 0.039062 3.3125 0.414062 6.773438 1.09375 11.101562 c -0.066407 -0.433593 1.597656 10.199219 2.007812 12.738282 c 0.925781 5.730468 1.945313 11.328125 3.058594 16.773437 c 0.453125 2.320313 0.871094 4.691407 1.257813 7.105469 h 0.234374 c -0.398437 -2.519531 -0.835937 -4.988281 -1.308593 -7.40625 c -0.917969 -4.496094 -1.777344 -9.101562 -2.566407 -13.796875 c -0.15625 -0.941406 -0.316406 -1.902344 -0.484374 -2.925781 c -0.410157 -2.535156 -2.070313 -13.164063 -2.003907 -12.742188 c -1.785156 -11.3125 -1.445312 -16.472656 1.675781 -29.191406 c 1.140626 -4.652344 2.730469 -7.785156 4.675782 -9.683594 c 1.832031 -1.78125 3.4375 -2.226562 5.785156 -2.226562 c 1.722656 0 2.671875 0.394531 3.90625 2.148437 c 1.71875 2.457031 3.332031 7.253907 4.855469 15.148438 c 2.863281 14.804687 5.851562 23.527343 10.15625 32 c 1.964843 3.878906 6.054687 17.570312 8.914062 28.675781 h 0.265625 c -2.871094 -11.21875 -7.050781 -25.210938 -9.0625 -29.167969 c -4.277344 -8.425781 -7.242187 -17.078125 -10.089844 -31.792969 c -1.542968 -7.996093 -3.183593 -12.878906 -4.949218 -15.394531 c -1.269532 -1.820312 -2.242188 -2.214843 -3.996094 -2.214843 c -2.371094 0 -3.992188 0.441406 -5.855469 2.261718 c -1.984375 1.929688 -3.609375 5.140625 -4.777343 9.898438 c -1.972657 8.050781 -2.855469 13.167968 -2.792969 18.691406 z m 3.617187 3.148438 c 0 6.566406 1.175782 15.582031 2.976563 21.851562 c 0.625 2.179688 0.980469 4.589844 1.242187 7.886719 c 0.066406 0.835937 0.105469 1.390625 0.214844 3.046875 c 0.332031 5.046875 0.589844 7.257812 1.285156 9.542968 c 0.214844 0.707032 0.359375 1.464844 0.511719 2.242188 h 0.25 c -0.171875 -0.9375 -0.34375 -1.800781 -0.601563 -2.636719 c -0.664062 -2.179687 -0.914062 -4.316406 -1.238281 -9.257812 c -0.109375 -1.660157 -0.148437 -2.226563 -0.214843 -3.078125 c -0.269532 -3.367188 -0.636719 -5.859375 -1.285157 -8.125 c -1.769531 -6.167969 -2.929687 -15.050782 -2.929687 -21.472656 c 0 -2.992188 1.570312 -9.753907 3.550781 -15.050782 c 2.367187 -6.320312 4.789063 -9.382812 6.640625 -7.535156 c 1.871094 1.871094 3.84375 6.742188 5.777344 13.675781 c 1.414062 5.042969 2.726562 10.976563 3.441406 15.0625 c 0.414062 2.359375 1.078125 4.15625 2.1875 6.125 c 0.238281 0.429688 4.273438 6.695313 5.863281 9.644531 c 1.796875 3.328126 3.621094 9.171876 5.84375 18.035157 c 0.34375 1.375 0.714844 2.914062 1.125 4.613281 h 0.257813 c -0.402344 -1.664062 -0.804688 -3.320312 -1.214844 -4.960938 c -2.234375 -8.925781 -4.070312 -14.8125 -5.894531 -18.195312 c -1.597657 -2.96875 -5.636719 -9.230469 -5.871094 -9.644531 c -1.074219 -1.914063 -1.710937 -3.644531 -2.105469 -5.882813 c -0.722656 -4.128906 -2.046875 -10.097656 -3.464844 -15.179687 c -1.960937 -7.003907 -3.957031 -11.945313 -5.875 -13.859375 c -1.945312 -1.941406 -4.4375 1.203125 -6.851562 7.664062 c -2.023438 5.398438 -3.621094 12.28125 -3.621094 15.488282 z m 1.652344 1.761718 c -0.027344 1.121094 0.019531 2.214844 0.152344 3.261719 c 1.042968 8.339844 1.257812 9.625 2.519531 15.164063 c 0.316406 1.394531 1.414063 5.675781 1.617187 6.613281 c 0.460938 2.105469 0.667969 3.9375 0.667969 6.300781 c 0 5.316406 0.347657 6.84375 2.003907 9.550781 c 0.296874 0.484375 0.394531 1.0625 0.410156 1.917969 h 0.4375 c -0.003906 -0.078125 0.015625 -0.261719 0.015625 -0.347656 c -0.046875 -1.105469 -0.25 -1.953125 -0.652344 -2.617188 c -1.53125 -2.496094 -1.792969 -3.640625 -1.792969 -8.503906 c 0 -2.605469 -0.230468 -4.652344 -0.730468 -6.9375 c -0.214844 -0.988281 -1.316407 -5.28125 -1.621094 -6.628906 c -1.246094 -5.457032 -1.445313 -6.660156 -2.480469 -14.925782 c -0.453125 -3.617187 0.269531 -8.121093 1.8125 -12.136718 c 1.441406 -3.753906 3.335937 -6.3125 4.707031 -6.3125 c 1.523438 0 2.167969 0.324218 2.800782 1.402344 c 0.355468 0.601562 2.058593 4.484374 2.34375 5.097656 c 1.605468 3.441406 2.0625 5.308594 2.765624 9.910156 c 0.132813 0.84375 0.226563 1.402344 0.34375 1.957031 c 0.058594 0.289063 0.121094 0.636719 0.195313 1.082031 c 0.0625 0.40625 0.398437 2.660157 0.503906 3.324219 c 0.644531 4.027344 1.398438 6.113281 2.644531 6.113281 c 2.136719 0 7.316407 11.140626 9.097657 20.15625 c 0.535156 2.734376 1.027343 5.996094 1.449219 9.367188 h 0.417968 c -0.464844 -3.765625 -0.980468 -7.300781 -1.503906 -9.957031 c -1.84375 -9.363281 -7.148438 -20.769531 -9.460938 -20.769531 c -1.039062 0 -1.675781 -1.769532 -2.261718 -5.410157 c -0.105469 -0.640625 -0.4375 -2.894531 -0.503906 -3.324219 c -0.078126 -0.480468 -0.144532 -0.871093 -0.214844 -1.203124 c -0.105469 -0.5 -0.195313 -1.015626 -0.316406 -1.824219 c -0.734376 -4.769531 -1.226563 -6.796875 -2.902344 -10.386719 c -0.261719 -0.5625 -1.996094 -4.515625 -2.382813 -5.175781 c -0.710937 -1.203125 -1.421875 -1.5625 -3.015625 -1.5625 c -1.488281 0 -3.476562 2.683593 -4.992187 6.625 c -1.238281 3.226562 -1.996094 6.820312 -2.074219 10.179687 z m 1.707031 3.535156 c 0.050781 0.441407 0.125 0.886719 0.246094 1.464844 c 0.070313 0.328125 0.367187 1.683594 0.386719 1.773438 c 0.417968 1.914062 0.777344 3.929687 1.074218 6.023437 c 0.160157 1.109375 0.328126 2.101563 0.503907 3.003907 c 0.285156 1.492187 0.640625 2.867187 1.054687 4.085937 c 0.226563 0.664063 0.925782 2.421875 0.890625 2.316406 c 0.511719 1.375 0.707031 2.554688 0.707031 4.925781 c 0 3.628907 0.324219 5.398438 1.167969 7.417969 c 0.058594 0.152344 0.527344 1.230469 0.671875 1.585938 c 0.257813 0.621093 0.496094 1.300781 0.714844 2.027343 c 0.109375 0.363282 0.203125 0.726563 0.28125 1.09375 c 0.214844 0.996094 0.300781 2.09375 0.359375 3.554688 h 0.210937 c -0.0625 -1.585938 -0.15625 -2.769531 -0.386718 -3.867188 c -0.085938 -0.398437 -0.1875 -0.789062 -0.304688 -1.179687 c -0.226562 -0.75 -0.472656 -1.445313 -0.738281 -2.085937 c -0.148437 -0.363282 -0.617187 -1.445313 -0.675781 -1.585938 c -0.796875 -1.914062 -1.089844 -3.519531 -1.089844 -6.960938 c 0 -2.546874 -0.21875 -3.882812 -0.773438 -5.363281 c -0.300781 -0.746093 -0.597656 -1.511719 -0.886718 -2.300781 c -0.402344 -1.175781 -0.746094 -2.507812 -1.019532 -3.953125 c -0.171874 -0.882813 -0.335937 -1.859375 -0.492187 -2.941406 c -0.300781 -2.125 -0.664063 -4.171875 -1.089844 -6.117188 c -0.023437 -0.09375 -0.316406 -1.429687 -0.386719 -1.761719 c -0.113281 -0.542968 -0.183593 -0.953124 -0.226562 -1.34375 c -0.148438 -1.335937 -0.007812 -2.707031 0.644531 -6.167968 c 1.632813 -8.648438 4.628907 -11.277344 7.863281 -5.308594 c 1.257813 2.324219 1.816407 5.40625 2.25 10.894531 c 0.039063 0.503907 0.058594 0.722657 0.144532 1.875 c 0.277344 3.691407 0.449218 5.382813 0.792968 7.148438 c 0.449219 2.316406 1.117188 3.898437 2.105469 4.792969 c 5.207031 4.6875 9.042969 11.738281 10.484375 21.492187 c 0.324219 2.21875 0.425782 3.140625 0.648438 4.734375 h 0.226562 c -0.226562 -1.648438 -0.339844 -2.640625 -0.683594 -4.960938 c -1.46875 -9.96875 -5.351562 -17.097656 -10.605468 -21.835937 c -0.941406 -0.847656 -1.566406 -2.328125 -1.992188 -4.515625 c -0.332031 -1.695312 -0.5 -3.34375 -0.769531 -6.980469 c -0.085937 -1.160156 -0.101563 -1.371093 -0.144531 -1.882812 c -0.445313 -5.628907 -1.027344 -8.835938 -2.34375 -11.265625 c -3.339844 -6.167969 -6.472656 -3.417969 -8.160156 5.523437 c -0.679688 3.601563 -0.835938 5.097657 -0.660157 6.644531 z m 1.640625 -1.09375 c 0.027344 1.359376 0.175782 2.683594 0.429688 4.109376 c 0.152344 0.804687 0.3125 1.59375 0.488281 2.359374 l 0.273437 1.222657 c 0.199219 0.875 0.390626 1.773437 0.566407 2.695312 c 1.03125 5.296875 3.632812 3.113281 4.824219 -3.007812 c 1.382812 -7.097657 1.371093 -14.445313 -0.695313 -16.082031 v -0.007813 c -2.796875 -2.214844 -4.835937 -1.117187 -5.609375 4.394531 c -0.21875 1.558594 -0.308594 2.953125 -0.277344 4.316406 z m 0.210938 -0.035156 c -0.027344 -1.277344 0.054687 -2.582031 0.261718 -4.058594 c 0.722657 -5.144531 2.648438 -6.179687 5.355469 -4.03125 c 1.882813 1.492188 1.898438 8.40625 0.570313 15.214844 c -1.121094 5.769532 -3.527344 7.785156 -4.453125 3.007813 c -0.089844 -0.46875 -0.1875 -0.9375 -0.292969 -1.429688 c -0.085938 -0.398437 -0.171875 -0.796875 -0.285156 -1.304687 l -0.273438 -1.21875 c -0.171875 -0.75 -0.328125 -1.523438 -0.476562 -2.3125 h 0.003906 c -0.246094 -1.347656 -0.382812 -2.589844 -0.410156 -3.867188 z m 0.8125 -0.074218 c 0.078125 2.089843 0.46875 4.242187 1.1875 5.777343 c 1.253906 2.691407 1.804687 2.65625 2.304687 0.207031 c 0.054688 -0.273437 0.113281 -0.578124 0.183594 -0.984374 l 0.199219 -1.136719 c 0.371094 -2.117188 0.542968 -4.683594 0.382812 -6.667969 c -0.203125 -2.527344 -0.898437 -3.996094 -2.101562 -3.996094 c -1.546875 0 -2.285156 3.316406 -2.15625 6.800782 z m 0.222656 -1.792969 c 0.128906 -2.675781 0.820312 -4.402344 1.933594 -4.40625 c 1.109375 0.003906 1.714844 1.285156 1.894531 3.527343 c 0.148437 1.84375 -0.011719 4.261719 -0.363281 6.269532 l -0.199219 1.128906 c -0.070313 0.394531 -0.125 0.691406 -0.179687 0.953125 c -0.425782 2.085937 -0.828126 2.113281 -1.996094 -0.382813 c -0.785156 -1.679687 -1.207032 -4.542968 -1.089844 -7.089843 z m 6.144531 33.847656 c 0.023438 2 0.113281 4.207031 0.261719 6.636719 c 0.035156 0.539062 0.039062 1.289062 0.0625 1.785156 h 0.210938 c -0.027344 -0.527344 -0.027344 -1.320312 -0.066407 -1.894531 c -0.589843 -9.523438 -0.203125 -15.457031 1.230469 -18.972657 c 1.152344 -2.816406 4.375 -0.476562 7.265625 3.652344 c 1.988281 2.832032 3.359375 6.265625 5.230469 13.746094 c 0.273437 1.09375 0.515625 2.261719 0.730468 3.46875 h 0.230469 c -0.230469 -1.328125 -0.484375 -2.621094 -0.785156 -3.820312 c -1.894531 -7.558594 -3.292969 -11.054688 -5.3125 -13.9375 c -2.980469 -4.246094 -6.246094 -6.625 -7.496094 -3.566407 c -1.128906 2.757813 -1.636719 6.902344 -1.5625 12.902344 z m 1.472657 3.734375 c -0.011719 1.847656 0.003906 3.273438 0.023437 4.6875 h 0.210937 c -0.019531 -1.40625 -0.039062 -2.828125 -0.023437 -4.671875 l 0.019531 -2.335937 c 0.023438 -2.335938 0.03125 -3.273438 0.03125 -4.460938 c 0 -3.976562 0.574219 -5.847656 1.648438 -6.167969 c 0.8125 -0.246093 1.664062 0.257813 3.28125 1.644531 c 1.722656 1.472657 5.195312 10.757813 6.441406 15.992188 h 0.242188 c -0.011719 -0.058594 -0.015626 -0.144531 -0.03125 -0.203125 c -1.242188 -5.320313 -4.796876 -14.828125 -6.59375 -16.367187 c -1.644532 -1.410157 -2.515626 -1.921876 -3.363282 -1.667969 c -1.183594 0.355469 -1.835937 2.484375 -1.835937 6.769531 c 0 1.179688 -0.007813 2.113281 -0.03125 4.441406 z m 1.738281 3.925781 c 0.03125 0.257813 0.0625 0.511719 0.09375 0.761719 h 0.1875 c -0.019531 -0.132812 -0.035157 -0.265625 -0.050781 -0.398438 c -0.011719 -0.1875 -0.019532 -0.320312 -0.019532 -0.398437 c 0.011719 -1.675781 0.105469 -3.339844 0.285156 -4.9375 c 0.347657 -3.039063 0.96875 -4.832031 1.929688 -4.832031 c 1.671875 0 3.046875 4.414062 3.960938 10.566406 h 0.226562 c -0.9375 -6.484375 -2.378906 -11.167969 -4.1875 -11.167969 c -1.066406 0 -1.753906 1.988281 -2.128906 5.25 c -0.183594 1.671875 -0.28125 3.40625 -0.296875 5.15625 z m 2.414062 -107.238281 c 0.351563 0.726562 0.683594 1.464844 0.996094 2.261719 c 1.789063 4.53125 2.988281 12.003906 4.171875 23.980469 c 0.257812 2.617187 1.070312 11.441406 1.082031 11.570312 c 0.394531 4.179688 0.710938 7.070312 1.046875 9.476562 c 0.902344 6.433594 2.238282 11.382813 5.628906 22.070313 l 0.324219 1.023437 c 1.632813 5.144532 2.503907 8.046876 3.335938 11.277344 c 0.609375 2.359375 1.195312 4.789063 1.871093 7.777344 c 0.285157 1.230469 1.394532 6.1875 1.675782 7.421875 c 1.109375 4.851563 2.039062 8.1875 2.996094 11.140625 h 0.289062 c -0.996094 -3.007812 -1.953125 -6.410156 -3.109375 -11.46875 c -0.28125 -1.222656 -1.390625 -6.179688 -1.671875 -7.417969 c -0.683594 -2.992187 -1.269531 -5.429687 -1.878906 -7.808593 c -0.839844 -3.25 -1.714844 -6.15625 -3.347656 -11.320313 l -0.328126 -1.023437 c -3.371093 -10.632813 -4.703124 -15.542969 -5.589843 -21.894532 c -0.335938 -2.375 -0.644531 -5.242187 -1.039063 -9.40625 c -0.011718 -0.121094 -0.824218 -8.949218 -1.082031 -11.578125 c -1.195313 -12.074219 -2.40625 -19.625 -4.234375 -24.261719 c -0.25 -0.640624 -0.527344 -1.226562 -0.804688 -1.820312 z m 6.074219 0 c 0.378906 1.855469 0.6875 3.871094 1.058594 7.316406 c 0.148437 1.542969 0.347656 3.046875 0.585937 4.496094 c 0.65625 3.71875 1.34375 9.378906 2.109375 16.933594 c 0.378906 3.714844 0.539063 5.410156 1.257813 13.101562 c 0.21875 2.347656 0.671875 4.90625 1.335937 7.746094 c 0.558594 2.382812 1.242188 4.863281 2.136719 7.855469 c 0.40625 1.347656 1.753906 5.710937 1.753906 5.699219 c 0.632813 2.070312 1.03125 3.476562 1.328125 4.675781 c 0.359375 1.46875 2.070313 9.195312 2.636719 11.578125 c 1.351563 5.734375 2.871094 11.132812 4.542969 16.136718 c 2.292968 6.890626 4.023437 7.726563 6.28125 4.621094 c 0.355468 -0.492187 0.707031 -1.019531 1.054687 -1.589844 l 0.359375 -0.558593 c 0.546875 -0.90625 1.113282 -1.707031 1.699219 -2.402344 c 1.472656 -1.675781 2.53125 -1.976563 3.378906 -1.117187 c 0.675781 0.6875 1.148438 1.871093 1.984375 4.648437 c 0.214844 0.738281 0.414063 1.519531 0.585938 2.34375 c 0.699218 3.195313 1.019531 4.316406 1.585937 5.363281 c 0.261719 0.476563 0.574219 0.84375 0.910157 1.152344 h 0.957031 c -0.722657 -0.296875 -1.304688 -0.832031 -1.753907 -1.664062 c -0.53125 -0.972657 -0.835937 -2.039063 -1.351562 -4.398438 c -0.394531 -1.792969 -0.570312 -2.503906 -0.773438 -3.191406 c -0.859374 -2.851563 -1.351562 -4.09375 -2.078124 -4.824219 c -0.898438 -0.910156 -2.007813 -0.597656 -3.527344 1.136719 c -0.59375 0.699218 -1.167969 1.511718 -1.722656 2.425781 l -0.359376 0.5625 c -0.339843 0.5625 -0.6875 1.089844 -1.042968 1.578125 c -2.179688 2.984375 -3.804688 2.203125 -6.035156 -4.496094 c -1.664063 -4.980468 -3.179688 -10.355468 -4.527344 -16.0625 c -0.5625 -2.371094 -2.273438 -10.109375 -2.636719 -11.589844 c -0.417969 -1.636718 -0.867187 -3.210937 -1.339844 -4.71875 c 0 0 -1.347656 -4.359374 -1.75 -5.707031 c -0.761719 -2.472656 -1.472656 -5.078125 -2.125 -7.792969 c -0.652343 -2.785156 -1.09375 -5.289062 -1.304687 -7.558593 c -0.398438 -4.390625 -0.820313 -8.761719 -1.257813 -13.121094 c -0.773437 -7.582031 -1.464843 -13.277344 -2.121093 -17.03125 c -0.238282 -1.417969 -0.429688 -2.894531 -0.578126 -4.414063 c -0.355468 -3.296874 -0.652343 -5.3125 -1.007812 -7.132812 z m 2.441406 0 c 0.726563 4.328125 1.445313 9.816406 2.191406 16.769531 c 0.269532 2.535157 0.527344 5.074219 0.777344 7.625 l 0.695313 7.089844 c 0.542969 5.609375 0.851562 8.480469 1.132812 10.503906 c 0.59375 4.238281 1.492188 7.558594 3.03125 11.878907 c 0.035157 0.097656 1.222657 3.363281 1.539063 4.285156 c 0.417968 1.179687 0.800781 2.457031 1.148437 3.816406 c 0.398438 1.632812 2.019531 8.839844 2.421875 10.527344 c 1.078125 4.523437 2.042969 7.917968 3.089844 10.640625 c 0.386719 1.003906 2.34375 6.503906 2.855469 7.695312 c 0.972656 2.246094 1.855469 3.292969 2.980469 3.292969 c 2.214843 0 6.550781 -12.378906 7.785156 -20.828125 c 0.347656 -2.371094 0.523437 -5.714844 0.675781 -11.472656 l 0.035156 -1.3125 c 0.039063 -1.816407 0.089844 -3.628907 0.152344 -5.441407 c 0.28125 -8.273437 0.699219 -14.015624 1.4375 -17.179687 c 0.203125 -0.867187 0.519531 -1.507813 1.171875 -2.480469 l 0.453125 -0.679687 c 0.296875 -0.4375 0.585937 -0.941407 0.855469 -1.503907 c 0.207031 -0.449218 0.40625 -0.933593 0.589844 -1.453124 l 0.289062 -0.792969 c 0.589844 -1.601563 0.96875 -2.265625 1.550781 -2.457031 c 0.414063 -0.132813 0.851563 -0.125 1.308594 0.011718 c 1.117187 0.339844 2.28125 1.398438 3.6875 3.160156 c 0.351563 0.441407 0.453125 0.574219 1.21875 1.59375 c 1.296875 1.722657 1.355469 7.054688 0.363281 14.898438 c -0.796875 6.304688 -2.269531 13.890625 -3.605468 19.101562 c -2.339844 9.101563 -4.261719 23.664063 -4.261719 32.257813 c 0 2.148437 0.339843 3.574219 0.988281 4.445313 c 0.488281 0.652343 1.027344 0.953124 2.1875 1.351562 c 1.117188 0.378906 1.402344 0.492188 1.933594 0.800781 c 0.667968 0.390625 1.242187 0.945313 1.757812 1.65625 c 0.25 -0.054687 0.492188 -0.125 0.726563 -0.203125 c -0.671875 -1.222656 -1.457031 -2.089844 -2.402344 -2.640625 c -0.648437 -0.359375 -1.304687 -0.632812 -1.964844 -0.816406 c -2.167969 -0.746094 -2.804687 -1.589844 -2.804687 -4.597656 c 0 -8.320313 1.890625 -22.640625 4.175781 -31.542969 c 1.363281 -5.308594 2.851563 -12.988281 3.667969 -19.410156 c 1.058594 -8.378906 0.992187 -14.300782 -0.585938 -16.402344 c -0.769531 -1.023438 -0.871094 -1.152344 -1.222656 -1.597656 c -1.441406 -1.8125 -2.648438 -2.902344 -3.816406 -3.257813 c -0.488282 -0.144531 -0.953125 -0.148437 -1.402344 -0.007812 c -0.6875 0.222656 -1.136719 1.011719 -1.789062 2.777343 c -0.046876 0.128907 -0.238282 0.65625 -0.289063 0.792969 c -0.214844 0.578125 -0.375 0.988281 -0.550781 1.359375 c -0.253906 0.53125 -0.523438 1 -0.804688 1.410156 l -0.449218 0.667969 c -0.710938 1.070313 -1.074219 1.792969 -1.328126 2.890625 c -0.792968 3.386719 -1.222656 9.25 -1.511718 17.722656 c -0.035156 1.121094 -0.066406 2.21875 -0.113282 4.167969 c -0.023437 0.871094 -0.042968 1.742188 -0.066406 2.613281 c -0.152344 5.628907 -0.320312 8.894532 -0.644531 11.105469 c -1.175781 8.050781 -5.394531 20.089844 -7.398437 20.089844 c -1.019532 0 -1.816407 -0.941406 -2.714844 -3.027344 c -0.496094 -1.152343 -2.4375 -6.613281 -2.835938 -7.648437 c -1.019531 -2.644532 -1.964844 -5.976563 -3.027344 -10.429688 c -0.394531 -1.65625 -2.019531 -8.882812 -2.425781 -10.535156 c -0.355469 -1.414062 -0.753906 -2.742188 -1.191406 -3.96875 c -0.320313 -0.933594 -1.511719 -4.214844 -1.542969 -4.304688 c -1.5 -4.214843 -2.367187 -7.417968 -2.9375 -11.464843 c -0.273437 -1.96875 -0.578125 -4.816407 -1.121094 -10.378907 c -0.226562 -2.367187 -0.457031 -4.734374 -0.691406 -7.101562 c -0.25 -2.554688 -0.511718 -5.101562 -0.78125 -7.640625 c -0.71875 -6.707031 -1.410156 -12.105469 -2.117187 -16.421875 z m 2.785156 0 c 0.617188 5.554688 1.320313 13.371094 2.316407 25.574219 c 0.679687 8.292969 1.789062 15.191406 3.285156 21.171875 c 1.097656 4.394531 2.128906 7.453125 3.914063 12.085937 c 0.46875 1.234375 0.914062 2.542969 1.335937 3.914063 c 0.308594 0.996094 1.4375 4.746094 1.429687 4.703125 c 0.515626 1.726562 1.054688 3.398437 1.613282 5.011719 c 1.15625 3.34375 2.453125 6.265624 3.863281 8.6875 c 1.609375 2.757812 2.738281 2.015624 3.511719 -1.730469 c 0.570312 -2.789063 0.859375 -6.066407 1.363281 -14.042969 c 0.261719 -4.128906 0.378906 -5.886719 0.554687 -7.886719 c 0.652344 -7.46875 0.179688 -12.75 -1.28125 -19.742187 l -0.558593 -2.648438 c -0.175781 -0.8125 -0.335938 -1.644531 -0.488281 -2.492187 c -0.101563 -0.578125 -0.664063 -3.640625 -0.828126 -4.574219 c -0.992187 -5.671875 -1.4375 -10.054688 -1.238281 -14.390625 c 0.097657 -2.152344 0.371094 -4.210937 0.796875 -6.007813 c 1.027344 -4.410156 2.480469 -4.769531 5.058594 -2.578124 c 0.226562 0.191406 0.441406 0.375 0.789062 0.691406 c 1.734376 1.570312 2.359376 2.019531 3.128907 2.019531 c 2.242187 0 4.796875 3.367187 7.746093 8.980469 c 0.503907 0.972656 1.046876 1.789062 1.609376 2.445312 c 0.214843 0.246094 0.429687 0.484375 0.648437 0.707032 c 1.855469 1.953124 2.328125 2.515624 3.652344 4.683593 c 2.714843 4.429688 3.445312 19.546875 1.652343 27.867188 c -0.277343 1.28125 -0.550781 2.570312 -0.824218 3.863281 c -0.429688 2.042969 -2.039063 9.84375 -2.203125 10.632812 c -1.046875 5.042969 -2.0625 9.839844 -3.300781 15.59375 c -1.265626 5.855469 -1.671876 9.75 -1.355469 12.109376 c 0.25 1.90625 0.914062 2.664062 1.980469 2.792968 c 0.226562 0.023438 0.421874 0.023438 0.796874 0.011719 l 0.355469 -0.011719 c 0.875 0 1.757813 1.605469 3.945313 6.546875 c 0.289062 0.65625 0.351562 0.710938 0.578125 1.207031 c 0.078125 -0.09375 0.144531 -0.195312 0.21875 -0.292968 c -0.210938 -0.457032 -0.289063 -0.546875 -0.554688 -1.140625 c -2.347656 -5.316407 -3.238281 -6.933594 -4.1875 -6.933594 l -0.359375 0.011719 c -0.261718 0.019531 -0.523437 0.015625 -0.785156 -0.011719 c -0.988281 -0.121094 -1.578125 -0.796875 -1.792969 -2.410156 c -0.285156 -2.128907 0.105469 -5.859375 1.339844 -11.578125 c 1.238281 -5.753906 2.253906 -10.554688 3.304687 -15.601563 c 0.164063 -0.785156 1.773438 -8.585937 2.203126 -10.632812 c 0.269531 -1.289063 0.542968 -2.570313 0.820312 -3.851563 c 1.847656 -8.585937 1.105469 -24.089844 -1.726562 -28.707031 c -1.335938 -2.183594 -1.820313 -2.761719 -3.683594 -4.71875 c -0.257813 -0.273437 -0.449219 -0.488281 -0.640625 -0.710937 c -0.550781 -0.640626 -1.078125 -1.441407 -1.574219 -2.386719 c -2.980469 -5.671875 -5.566406 -9.078125 -7.863281 -9.078125 c -0.738281 0 -1.355469 -0.445313 -3.066407 -1.992188 c -0.347656 -0.3125 -0.5625 -0.503906 -0.789062 -0.699218 c -2.660156 -2.253907 -4.199219 -1.875 -5.296875 2.828124 c -0.445313 1.875 -0.730469 4.019532 -0.832031 6.261719 c -0.203125 4.484375 0.25 8.96875 1.261718 14.738281 c 0.164063 0.941407 0.726563 4.003907 0.828126 4.574219 c 0.128906 0.746094 0.285156 1.527344 0.496093 2.527344 l 0.554688 2.648437 c 1.433593 6.871094 1.898437 12.007813 1.261719 19.292969 c -0.214844 2.574219 -0.398438 5.167969 -0.550782 7.777344 c -0.503906 8.042969 -0.792968 11.296875 -1.347656 13.988281 c -0.710938 3.457032 -1.707031 4.109375 -3.21875 1.523438 c -1.394531 -2.394532 -2.679688 -5.28125 -3.820312 -8.589844 c -0.519532 -1.480469 -1.011719 -3.003906 -1.609376 -4.972656 c 0.011719 0.042968 -1.117187 -3.710938 -1.425781 -4.71875 c -0.425781 -1.382813 -0.878906 -2.703125 -1.351562 -3.953125 c -1.777344 -4.601563 -2.796875 -7.640625 -3.886719 -11.988281 c -1.480469 -5.921876 -2.578125 -12.742188 -3.25 -20.957032 c -0.984375 -12.054687 -1.683594 -19.871094 -2.300781 -25.441406 z m 1.976563 0 c 1.289063 10.65625 2.867187 27.992188 2.867187 32.742188 c 0 5.574218 5.324219 23.4375 9.738282 33.933593 c 3.835937 9.128907 4.148437 8.597657 5.65625 -9.1875 c 0.597656 -7.117187 0.492187 -10.878906 -0.277344 -14.925781 c 0.074219 0.367188 -1.480469 -6.816406 -1.980469 -9.925781 c -0.574219 -3.667969 -1.019531 -7.484375 -1.328125 -11.402344 c -0.785156 -9.4375 -0.589844 -17.277344 0.367188 -21.234375 h -0.246094 c -0.933594 4.230469 -1.101562 12.0625 -0.328125 21.378906 c 0.375 4.519532 0.820313 8.246094 1.34375 11.503906 c 0.507813 3.160157 2.0625 10.371094 1.992187 9.964844 c 0.738282 3.90625 0.839844 7.519532 0.25 14.5 c -1.472656 17.410156 -1.617187 17.65625 -5.3125 8.871094 c -4.359374 -10.371094 -9.664062 -28.167969 -9.664062 -33.476562 c 0 -4.789063 -1.5625 -21.996094 -2.851562 -32.742188 z m 1.695313 0 c 0.402343 3.511719 0.808593 7.4375 1.265624 12.582031 c 0.210938 2.425781 0.925782 10.820313 1.0625 12.371094 c 0.390626 4.457031 0.683594 7.457031 0.957032 9.691406 h 0.003906 c 0.304688 2.46875 0.609375 4.296875 0.933594 5.683594 c 0.410156 1.746094 0.777344 2.609375 1.488281 3.769531 c 0.871094 1.421875 1.117187 1.902344 1.609375 3.300782 c 0.296875 0.851562 0.40625 1.191406 1.167969 3.550781 l 0.34375 1.070312 c 0.816406 2.515625 1.375 3.992188 1.890625 4.863281 c 0.671875 1.136719 1.21875 1.050782 1.609375 -0.5 c 1.328125 -5.320312 1.605469 -9.035156 0.855469 -16.503906 c -0.335938 -3.355468 -0.816407 -6.683594 -1.59375 -11.371094 c 0.027343 0.179688 -0.816407 -4.851562 -1.027344 -6.15625 c -0.292969 -1.738281 -0.542969 -3.523437 -0.75 -5.351562 c -0.21875 -2.039062 -0.273438 -3.425781 -0.285156 -6.328125 c -0.003907 -0.269531 -0.003907 -0.394531 -0.003907 -0.550781 c -0.023437 -3.527344 -0.183593 -5.707032 -0.777343 -8.824219 c -0.113282 -0.589844 -0.117188 -0.777344 -0.214844 -1.296875 h -0.230469 c 0.113281 0.617188 0.125 0.867188 0.261719 1.585938 c 0.578125 3.019531 0.730468 5.105468 0.75 8.546874 v 0.546876 c 0.015625 2.953124 0.066406 4.386718 0.296875 6.5 c 0.210937 1.851562 0.464843 3.664062 0.757812 5.421874 c 0.210938 1.3125 1.058594 6.34375 1.03125 6.164063 c 0.773438 4.65625 1.25 7.96875 1.582031 11.277344 c 0.730469 7.289062 0.46875 10.816406 -0.824218 15.992187 c -0.316406 1.257813 -0.742188 1.324219 -1.332032 0.332032 c -0.492187 -0.832032 -1.035156 -2.289063 -1.84375 -4.757813 l -0.34375 -1.0625 c -0.761718 -2.371094 -0.871093 -2.714844 -1.175781 -3.574219 c -0.503906 -1.445312 -0.761719 -1.953125 -1.648437 -3.398437 c -0.683594 -1.117188 -1.03125 -1.929688 -1.421875 -3.585938 c -0.3125 -1.335937 -0.609375 -3.125 -0.910157 -5.546875 c -0.269531 -2.210937 -0.5625 -5.195312 -0.949218 -9.628906 c -0.140625 -1.554688 -0.851563 -9.949219 -1.066406 -12.375 c -0.449219 -5.082031 -0.847657 -8.933594 -1.246094 -12.4375 z m 4.085937 14.855469 c -0.085937 1.097656 -0.058594 1.953125 0.105469 5.09375 c 0.101562 1.957031 0.144531 3.109375 0.144531 4.363281 c 0 0.683594 -0.003906 1.273438 -0.007813 2.269531 c -0.03125 5.058594 0.042969 6.496094 0.617188 8.53125 c 0.078125 0.285157 0.167969 0.566407 0.265625 0.84375 c 0.039063 0.121094 1.617187 4.984375 2.277344 6.890625 c 0.316406 0.910156 0.617187 1.738282 0.90625 2.5 c 0.964843 2.539063 1.753906 4.167969 2.347656 4.691406 c 0.757813 0.679688 1.1875 -0.460937 1.1875 -3.460937 c 0 -5.835937 -0.457031 -8.941406 -1.695313 -13.871094 l -0.121093 -0.480469 c -0.613281 -2.445312 -0.898438 -3.785156 -1.144531 -5.617187 l -0.183594 -1.371094 l -0.019532 -0.164062 c -0.605468 -4.585938 -0.90625 -6.566407 -1.347656 -8.515625 c -0.597656 -2.617188 -1.277344 -3.984375 -2.132812 -3.984375 c -0.703125 0 -1.082032 0.765625 -1.199219 2.28125 z m 0.207031 0.128906 c 0.09375 -1.222656 0.382813 -1.804687 0.992188 -1.804687 c 0.773437 0 1.398437 1.25 1.957031 3.703124 c 0.429687 1.910157 0.726563 3.867188 1.328125 8.410157 l 0.019531 0.148437 l 0.183594 1.386719 c 0.25 1.886719 0.546875 3.265625 1.171875 5.753906 l 0.117188 0.480469 c 1.21875 4.828125 1.65625 7.824219 1.65625 13.515625 c 0 2.621094 -0.304688 3.433594 -0.914063 2.890625 c -0.554687 -0.492188 -1.324219 -2.082031 -2.265625 -4.5625 c -0.304688 -0.808594 -0.605469 -1.632812 -0.898438 -2.480469 c -0.660156 -1.894531 -2.238281 -6.769531 -2.28125 -6.890625 c -0.09375 -0.265625 -0.175781 -0.53125 -0.25 -0.792968 c -0.527343 -1.890626 -0.597656 -3.226563 -0.570312 -8.152344 c 0.007812 -0.996094 0.007812 -1.585938 0.007812 -2.277344 c 0 -1.289062 -0.042968 -2.46875 -0.148437 -4.453125 c -0.15625 -3.039063 -0.183594 -3.882813 -0.105469 -4.875 z m 13.332032 93.015625 h 0.265624 c 0.046876 -0.144531 0.066407 -0.265625 0.121094 -0.417969 c 0.761719 -2.167969 1.5 -3.070312 2.296875 -2.949219 c 0.527344 0.082032 1.082031 0.601563 1.746094 1.574219 c 0.316406 0.472657 0.625 0.972657 0.929687 1.5 l 0.164063 0.292969 h 0.40625 l -0.460937 -0.808594 c -0.308594 -0.539062 -0.621094 -1.042968 -0.941407 -1.515625 c -0.691406 -1.011719 -1.269531 -1.554687 -1.828125 -1.644531 c -0.863281 -0.132812 -1.660156 0.839844 -2.460937 3.128906 c -0.105469 0.296875 -0.152344 0.554688 -0.238281 0.839844 z m 6.769531 -108 c 2.558593 1.667969 5.027343 4.269531 6.125 7.085938 c 0.890625 2.289062 2.285156 4.152343 4.910156 6.957031 l 1.542969 1.648437 c 0.578125 0.621094 1.03125 1.128906 1.433594 1.609375 c 0.941406 1.121094 1.601562 2.085938 2.03125 3.042969 c 0.5625 1.25 1.042968 3.101562 1.476562 5.195312 v -1.316406 c -0.402344 -1.75 -0.851562 -3.246094 -1.347656 -4.351562 c -0.449219 -0.996094 -1.121094 -1.988282 -2.078125 -3.132813 c -0.40625 -0.480469 -0.859375 -0.984375 -1.441407 -1.609375 c -0.292968 -0.320312 -1.351562 -1.433594 -1.546874 -1.644531 c -2.59375 -2.773437 -3.980469 -4.628906 -4.839844 -6.84375 c -1.003906 -2.578125 -3.101563 -4.953125 -5.375 -6.640625 z m 0.964843 66.863281 c -0.203124 4.113281 0.445313 7.703125 1.644532 7.703125 c 1.65625 0 3.269531 -4.703125 3.269531 -10.230468 v -1.074219 c 0.007813 -3.753907 -0.027344 -5.113281 -0.25 -6.492188 c -0.289063 -1.792969 -0.875 -2.667969 -1.882813 -2.667969 c -1.222656 0 -1.527343 0.753907 -1.703124 3.425782 c -0.171876 2.625 -0.253907 3.484375 -0.578126 5.15625 c -0.269531 1.375 -0.429687 2.804687 -0.5 4.179687 z m 0.214844 0.003907 c 0.066406 -1.273438 0.21875 -2.601563 0.46875 -3.890626 c 0.339844 -1.746093 0.429688 -2.65625 0.605469 -5.335937 c 0.15625 -2.394531 0.375 -2.9375 1.492187 -2.9375 c 0.933594 0 1.4375 0.753906 1.691407 2.316406 c 0.203125 1.265625 0.238281 2.589844 0.230469 6.238281 v 1.078126 c 0 5.199218 -1.519532 9.628906 -3.058594 9.628906 c -1.050782 0 -1.628906 -3.28125 -1.429688 -7.097656 z m 4.308594 -66.867188 c 0.292969 0.5625 0.632812 1.15625 0.851562 1.671875 c 1.390626 3.304687 3.070313 5.496094 6.058594 8.402344 l 1.179688 1.128906 c 0.839844 0.78125 1.667968 1.632813 2.488281 2.550781 c 0.515625 0.585938 0.992187 1.449219 1.453125 2.417969 v -0.761719 c -0.4375 -0.882812 -0.890625 -1.660156 -1.371094 -2.207031 c -0.6875 -0.785156 -1.371094 -1.480469 -2.5 -2.566406 c -0.394531 -0.375 -0.789062 -0.753907 -1.179687 -1.136719 c -2.964844 -2.882812 -4.632813 -5.046875 -5.996094 -8.285156 c -0.15625 -0.378906 -0.421875 -0.816406 -0.617187 -1.214844 z m 4.976562 0.316406 c 0 2.5 1.300782 5.15625 3.886719 7.710938 c 1.199219 1.183594 2.230469 2.460937 3.167969 3.804687 v -1.328125 c -0.910156 -1.269531 -1.894531 -2.484375 -3.03125 -3.601562 c -2.417969 -2.390625 -3.601562 -4.808594 -3.601562 -6.578125 c 0 -0.085938 0.03125 -0.160157 0.039062 -0.246094 c -0.140625 -0.015625 -0.28125 -0.035156 -0.421875 -0.046875 c -0.007813 0.101562 -0.039063 0.179688 -0.039063 0.285156 z m 1.09375 87.074219 c -0.003906 1.546875 0.34375 2.574219 1.003907 3.542969 c 0.148437 0.210937 0.769531 1.046875 0.921875 1.265625 c 0.359375 0.5 0.703125 1.078125 1.03125 1.730469 c 0.320312 0.648437 0.617187 1.386718 0.878906 2.210937 c 0.554688 1.714844 1.28125 3.324219 2.09375 4.777344 c 0.015625 -0.207031 0.03125 -0.417969 0.03125 -0.632813 v -0.011718 c -0.765625 -1.390626 -1.445312 -2.921876 -1.96875 -4.542969 c -0.277344 -0.863281 -0.582031 -1.617188 -0.910156 -2.292969 c -0.339844 -0.671875 -0.691406 -1.265625 -1.0625 -1.777344 c -0.152344 -0.21875 -0.773438 -1.058594 -0.917969 -1.265625 c -1.195313 -1.742187 -1.238281 -3.503906 0.160156 -9.332031 l 0.925781 -3.847656 c 0.320313 -1.34375 0.640626 -2.691406 0.960938 -4.039063 c 0.714844 -3.039062 1.308594 -5.65625 1.839844 -8.15625 c 0.367187 -1.734375 0.675781 -3.339843 0.972656 -4.925781 v -1.222656 c -0.335938 1.847656 -0.71875 3.78125 -1.152344 5.835937 c -0.527344 2.492188 -1.121094 5.105469 -1.835937 8.132813 c -0.285157 1.21875 -0.582031 2.453125 -0.960938 4.03125 c -0.046875 0.199218 -0.734375 3.042968 -0.925781 3.851562 c -0.730469 3.046875 -1.082031 5.117188 -1.085938 6.667969 z m 3.207032 -2.984375 c 0.078125 0.632812 0.242187 1.140625 0.480468 1.628906 c 0.113282 0.234375 0.589844 1.121094 0.589844 1.121094 c 0.433594 0.882812 0.839844 1.859375 1.21875 2.914062 c 0.050782 0.125 0.300782 0.792969 0.464844 1.234376 v -0.824219 c -0.09375 -0.257813 -0.285156 -0.769531 -0.320312 -0.859375 c -0.390626 -1.074219 -0.804688 -2.070313 -1.242188 -2.96875 c -0.007812 -0.015625 -0.480469 -0.882813 -0.585938 -1.105469 c -0.808593 -1.664063 -0.613281 -3.691406 1.453126 -12.316406 c 0.578124 -2.410157 0.351562 -1.597657 0.695312 -3.03125 v -1.097657 c -0.367188 1.550782 -0.144531 0.773438 -0.867188 3.789063 c -1.597656 6.664063 -2.125 9.628906 -1.886718 11.515625 z m 2.417968 -4.679688 c -0.035156 1.148438 0.054688 2.203126 0.289063 3.246094 c 0.011719 0.058594 0.03125 0.113282 0.046875 0.167969 v -6.082031 c -0.144531 0.925781 -0.308594 1.867187 -0.335938 2.667968 z m 0 0" fill="#63452c"/>
        </g>
    </g>
    <path d="m 30 30 h 68 c 1.105469 0 2 0.894531 2 2 v 70 c 0 1.105469 -0.894531 2 -2 2 h -68 c -1.105469 0 -2 -0.894531 -2 -2 v -70 c 0 -1.105469 0.894531 -2 2 -2 z m 0 0" fill="url(#h)"/>
    <path d="m 30 30 h 68 c 1.105469 0 2 0.894531 2 2 v 68 c 0 1.105469 -0.894531 2 -2 2 h -68 c -1.105469 0 -2 -0.894531 -2 -2 v -68 c 0 -1.105469 0.894531 -2 2 -2 z m 0 0" fill="#241f31"/>
    <g mask="url(#i)">
        <g clip-path="url(#j)" transform="matrix(1 0 0 1 -8 -16)">
            <path d="m 38 46 c -0.554688 0 -1.054688 0.222656 -1.417969 0.582031 l 3.710938 3.710938 c 0.179687 -0.179688 0.429687 -0.292969 0.707031 -0.292969 h 62 c 0.28125 0 0.535156 0.121094 0.714844 0.304688 l 3.710937 -3.710938 c -0.363281 -0.367188 -0.867187 -0.59375 -1.425781 -0.59375 z m 65.699219 67.710938 c -0.179688 0.179687 -0.425781 0.289062 -0.699219 0.289062 h -62 c -0.269531 0 -0.507812 -0.109375 -0.6875 -0.28125 l -3.707031 3.710938 c 0.359375 0.351562 0.847656 0.570312 1.394531 0.570312 h 68 c 0.550781 0 1.046875 -0.21875 1.40625 -0.578125 z m 0 0" fill="#3d3846"/>
        </g>
    </g>
    <path d="m 33 206 h 62 c 0.550781 0 1 0.449219 1 1 v 62 c 0 0.550781 -0.449219 1 -1 1 h -62 c -0.550781 0 -1 -0.449219 -1 -1 v -62 c 0 -0.550781 0.449219 -1 1 -1 z m 0 0" fill="url(#k)" stroke="#deddda" transform="matrix(1 0 0 1 0 -172)"/>
    <g mask="url(#l)">
        <g clip-path="url(#m)" transform="matrix(1 0 0 1 -8 -16)">
            <path d="m 38 46 c -0.554688 0 -1.054688 0.222656 -1.417969 0.582031 l 0.417969 0.417969 h 70 l 0.425781 -0.40625 c -0.363281 -0.367188 -0.867187 -0.59375 -1.425781 -0.59375 z m 0 0" fill="#ffffff"/>
        </g>
    </g>
    <path d="m 37.992188 39.492188 h 52.015624 c 0.277344 0 0.5 0.222656 0.5 0.5 v 52.015624 c 0 0.277344 -0.222656 0.5 -0.5 0.5 h -52.015624 c -0.277344 0 -0.5 -0.222656 -0.5 -0.5 v -52.015624 c 0 -0.277344 0.222656 -0.5 0.5 -0.5 z m 0 0" fill="none" stroke="#000000" stroke-width="0.981825"/>
    <path d="m 48.246094 44 l -6.132813 0.03125 l 0.925781 0.414062 c 0.511719 0.226563 1.257813 0.808594 1.660157 1.289063 l 0.734375 0.875 l -0.148438 7.375 c -0.082031 4.054687 -0.25 7.777344 -0.378906 8.265625 c -0.285156 1.125 -1.515625 2.394531 -2.316406 2.394531 c -0.324219 0 -0.589844 0.105469 -0.589844 0.230469 c 0 0.140625 1.324219 0.226562 3.515625 0.226562 s 3.515625 -0.085937 3.515625 -0.226562 c 0 -0.125 -0.238281 -0.230469 -0.535156 -0.230469 c -0.726563 0 -1.71875 -0.816406 -2.101563 -1.730469 c -0.335937 -0.804687 -0.371093 -4.226562 -0.113281 -10.730468 l 0.140625 -3.503906 l 4.160156 7.925781 c 2.285157 4.359375 4.300781 8.074219 4.472657 8.25 c 0.273437 0.28125 0.332031 0.277343 0.453124 -0.035157 c 0.078126 -0.199218 1.652344 -3.917968 3.503907 -8.257812 l 3.363281 -7.898438 l 0.128906 1.242188 c 0.1875 1.800781 0.597656 10.246094 0.597656 12.285156 c -0.003906 2.003906 -0.273437 2.453125 -1.476562 2.453125 c -0.421875 0 -0.828125 0.105469 -0.90625 0.230469 c -0.089844 0.148438 1.394531 0.226562 4.296875 0.226562 c 2.808594 0 4.4375 -0.082031 4.4375 -0.226562 c 0 -0.125 -0.3125 -0.230469 -0.695313 -0.230469 c -1.019531 0 -1.535156 -0.363281 -1.683593 -1.191406 c -0.222657 -1.261719 -0.992188 -16.808594 -0.863281 -17.472656 c 0.15625 -0.8125 0.9375 -1.417969 2.15625 -1.667969 c 0.796874 -0.160156 0.464843 -0.207031 -1.863282 -0.261719 c -2.355468 -0.054687 -2.875 -0.007812 -3.09375 0.289063 c -0.140625 0.195312 -1.664062 3.59375 -3.382812 7.550781 s -3.199219 7.28125 -3.285156 7.378906 c -0.085938 0.101563 -1.71875 -2.753906 -3.625 -6.351562 c -1.90625 -3.59375 -3.785157 -7.070313 -4.167969 -7.726563 z m 30.265625 6 c -4.148438 0 -7.511719 3.359375 -7.511719 7.5 s 3.363281 7.5 7.511719 7.5 c 4.148437 0 7.515625 -3.359375 7.515625 -7.5 s -3.367188 -7.5 -7.515625 -7.5 z m -11.859375 16.238281 c -0.046875 0 -0.152344 1.199219 -0.238282 2.664063 c -0.085937 1.464844 -0.214843 3.046875 -0.289062 3.515625 c -0.199219 1.277343 0.1875 1.015625 0.921875 -0.628907 c 0.910156 -2.039062 2.359375 -3.367187 4.097656 -3.757812 c 1.121094 -0.25 1.402344 -0.242188 1.910157 0.042969 l 0.597656 0.332031 l 0.054687 9.238281 c 0.058594 8.988281 0.050781 9.246094 -0.394531 9.6875 c -0.25 0.253907 -0.738281 0.464844 -1.078125 0.472657 c -0.34375 0.011718 -0.832031 0.105468 -1.078125 0.214843 c -0.273438 0.113281 1.554688 0.191407 4.535156 0.191407 c 2.984375 0 4.808594 -0.078126 4.539063 -0.191407 c -0.25 -0.109375 -0.777344 -0.203125 -1.179688 -0.214843 c -1.429687 -0.03125 -1.429687 -0.015626 -1.429687 -10.003907 c 0 -10.34375 -0.089844 -9.871093 1.867187 -9.851562 c 2.207031 0.019531 4.042969 1.5625 4.730469 3.980469 c 0.160156 0.550781 0.355469 1.082031 0.441406 1.183593 c 0.152344 0.175781 0.679688 -6.671875 0.527344 -6.855469 c -0.042969 -0.054687 -0.292969 0.097657 -0.554688 0.335938 c -0.449218 0.410156 -0.976562 0.4375 -8.726562 0.5 c -8.042969 0.0625 -8.265625 0.054688 -8.714844 -0.394531 c -0.253906 -0.257813 -0.496094 -0.460938 -0.539062 -0.460938 z m -11.917969 0.738281 c -0.175781 0.027344 -2.152344 4.085938 -4.394531 9.015626 c -2.242188 4.929687 -4.449219 9.523437 -4.902344 10.207031 c -0.695312 1.050781 -1.007812 1.308593 -1.964844 1.628906 l -1.132812 0.378906 l 4.3125 0.015625 c 2.859375 0.011719 4.195312 -0.058594 3.96875 -0.203125 c -0.1875 -0.121093 -0.523438 -0.222656 -0.746094 -0.226562 c -0.796875 -0.007813 -1.785156 -0.714844 -2.121094 -1.515625 c -0.414062 -0.988282 -0.28125 -1.679688 0.769532 -3.988282 l 0.800781 -1.757812 h 8.34375 l 1.476562 3 c 1.722657 3.492188 1.773438 3.976562 0.4375 4.386719 c -0.792969 0.246093 -0.382812 0.28125 3.347657 0.300781 c 2.339843 0.015625 4.253906 -0.023438 4.253906 -0.078125 s -0.355469 -0.273437 -0.792969 -0.476563 c -1.078125 -0.515624 -1.535156 -1.300781 -6.808594 -11.75 c -2.964843 -5.882812 -4.644531 -8.976562 -4.847656 -8.9375 z m -1.53125 4.9375 l 0.765625 1.414063 c 0.425781 0.777344 1.324219 2.515625 2 3.855469 l 1.234375 2.441406 h -7.480469 l 0.804688 -1.761719 c 0.441406 -0.96875 1.226562 -2.703125 1.738281 -3.855469 z m 0 0" fill="url(#n)"/>
    <g mask="url(#o)">
        <g clip-path="url(#q)" transform="matrix(1 0 0 1 -8 -16)">
            <path d="m 68 37 s -34.273438 24.011719 -36 27 s 2.078125 18 40 18 s 42.066406 -14.421875 40 -18 s -36 -27 -36 -27 z m 0 0" fill="url(#p)"/>
        </g>
    </g>
    <g mask="url(#r)">
        <g clip-path="url(#t)" transform="matrix(1 0 0 1 -8 -16)">
            <path d="m 108 82 c 0 22.089844 -16.117188 40 -36 40 s -36 -17.910156 -36 -40 s 16.117188 -40 36 -40 s 36 17.910156 36 40 z m 0 0" fill="url(#s)"/>
        </g>
    </g>
    <path d="m 64 12 c 2.210938 0 4 1.339844 4 2.996094 v 6.007812 c 0 1.65625 -1.789062 2.996094 -4 2.996094 s -4 -1.339844 -4 -2.996094 v -6.007812 c 0 -1.65625 1.789062 -2.996094 4 -2.996094 z m 0 0" fill="url(#u)"/>
    <path d="m 66.558594 182.75 c 0 1 -1.144532 1.808594 -2.558594 1.808594 s -2.558594 -0.808594 -2.558594 -1.808594 s 1.144532 -1.808594 2.558594 -1.808594 s 2.558594 0.808594 2.558594 1.808594 z m 0 0" fill="url(#v)" stroke="#000000" stroke-width="0.878995" transform="matrix(1 0 0 1 0 -168)"/>
    <path d="m 63.5 9 c -0.277344 0 -0.5 0.222656 -0.5 0.5 v 4.5 c 0 0.554688 0.445312 1 1 1 s 1 -0.445312 1 -1 v -4.5 c 0 -0.277344 -0.222656 -0.5 -0.5 -0.5 z m 0 0" fill="url(#w)"/>
    <g mask="url(#x)">
        <g clip-path="url(#z)" transform="matrix(1 0 0 1 -8 -16)">
            <path d="m 71.5 25 c -0.277344 0 -0.5 0.222656 -0.5 0.5 v 4.5 c 0 0.554688 0.445312 1 1 1 s 1 -0.445312 1 -1 v -4.5 c 0 -0.277344 -0.222656 -0.5 -0.5 -0.5 z m 0 0" fill="url(#y)"/>
        </g>
    </g>
    <path d="m 42 6 h 44 c 1.105469 0 2 0.894531 2 2 s -0.894531 2 -2 2 h -44 c -1.105469 0 -2 -0.894531 -2 -2 s 0.894531 -2 2 -2 z m 0 0" fill="url(#A)"/>
    <g mask="url(#B)">
        <g clip-path="url(#C)" transform="matrix(1 0 0 1 -8 -16)">
            <path d="m 50 22 c -1.109375 0 -2 0.890625 -2 2 c 0 0.175781 0.027344 0.339844 0.070312 0.5 c 0.222657 -0.863281 0.996094 -1.5 1.929688 -1.5 h 44 c 0.933594 0 1.707031 0.636719 1.929688 1.5 c 0.042968 -0.160156 0.070312 -0.324219 0.070312 -0.5 c 0 -1.109375 -0.890625 -2 -2 -2 z m 0 0" fill="#ffffff"/>
        </g>
    </g>
    <g mask="url(#D)">
        <g clip-path="url(#E)" transform="matrix(1 0 0 1 -8 -16)">
            <path d="m 71 26 h 2 v 1 h -2 z m 0 0"/>
        </g>
    </g>
</svg>
